<?xml version="1.0" encoding="utf-8"?>
<svg version="1.1" id="Layer_1" x="0px" y="0px" viewBox="100.38999938964844 43.62099838256836 324.5799865722656 397.093994140625" style="enable-background:new 0 0 512.001 512.001;" xmlns="http://www.w3.org/2000/svg" xmlns:bx="https://boxy-svg.com">
  <g transform="matrix(0.788348, 0.0611, -0.0611, 0.788348, 187.824677, 83.305077)" bx:origin="0.579 0.178">
    <g transform="matrix(0.606478, -0.7951, 0.7951, 0.606478, -251.272141, 183.434402)" bx:origin="0.593 0.181">
      <rect x="219.314" y="262.179" width="168.418" height="62.527" transform="matrix(0.141908, -0.98988, 0.98988, 0.141907, -272.415492, 645.149936)" style="fill: rgb(247, 178, 57);" rx="31.264" ry="31.264" bx:origin="0.844 0.589"/>
      <path d="M 22.553 434.47 L 37.58 329.651 C 40.03 312.56 55.872 300.69 72.963 303.14 C 73.426 303.206 73.886 303.283 74.342 303.369 C 68.107 308.166 63.666 315.306 62.462 323.708 L 47.435 428.527 C 45.051 445.155 56.221 460.601 72.568 463.683 C 66.119 468.644 57.753 471.1 49.063 469.854 C 31.972 467.403 20.103 451.561 22.553 434.47 Z" style="fill: rgb(224, 155, 45);"/>
    </g>
  </g>
  <g transform="matrix(0.106049, -0.783569, 0.783569, 0.106049, 20.96426, 365.851837)" bx:origin="0.561 0.173">
    <rect x="219.314" y="262.179" width="168.418" height="62.527" transform="matrix(0.141908, -0.98988, 0.98988, 0.141907, -272.415492, 645.149875)" style="fill: rgb(247, 178, 57);" rx="31.264" ry="31.264" bx:origin="0.209 0.424"/>
    <path d="M 22.553 434.47 L 37.58 329.651 C 40.03 312.56 55.872 300.69 72.963 303.14 C 73.426 303.206 73.886 303.283 74.342 303.369 C 68.107 308.166 63.666 315.306 62.462 323.708 L 47.435 428.527 C 45.051 445.155 56.221 460.601 72.568 463.683 C 66.119 468.644 57.753 471.1 49.063 469.854 C 31.972 467.403 20.103 451.561 22.553 434.47 Z" style="fill: rgb(224, 155, 45);"/>
  </g>
  <g transform="matrix(-0.683759, 0.397118, -0.397118, -0.683759, 388.104767, 491.908142)" bx:origin="0.192 0.435">
    <rect x="219.314" y="262.179" width="168.418" height="62.527" transform="matrix(0.989654, 0.143477, -0.143475, 0.989654, -177.982962, 73.61212)" style="fill: rgb(247, 178, 57);" rx="31.264" ry="31.264" bx:origin="0.007 0.505"/>
    <path d="M 79.479 473.86 C 65.744 484.323 46.127 481.67 35.664 467.935 C 25.201 454.2 27.854 434.583 41.59 424.12 L 125.825 359.955 C 133.508 354.103 143.031 352.354 151.763 354.353 L 69.919 416.696 C 56.183 427.159 53.53 446.775 63.993 460.511 C 68.604 466.563 74.992 470.464 81.871 472.038 Z" style="fill: rgb(224, 155, 45);" transform="matrix(-0.707107, -0.707107, 0.707107, -0.707107, -140.278125, 775.710316)"/>
  </g>
  <rect x="173.414" y="207.308" width="133.17" height="49.441" transform="matrix(0.849524, -0.52755, 0.527552, 0.849523, 25.323851, 135.970687)" style="fill: rgb(247, 178, 57);" rx="24.721" ry="24.721" bx:origin="0.201 0.464"/>
  <g>
    <g>
      <path style="fill: rgb(247, 178, 57);" d="M 326.166 271.733 L 306.765 202.399 C 328.448 186.982 342.593 161.65 342.593 133.016 C 342.593 128.741 342.275 124.541 341.667 120.444 C 355.24 115.121 364.847 101.913 364.847 86.469 C 364.847 66.319 348.514 49.986 328.365 49.986 C 318.243 49.986 309.085 54.111 302.471 60.772 C 303.765 61.579 303.765 61.579 302.471 60.772 C 289.431 52.633 274.024 47.928 257.513 47.928 C 241.002 47.928 225.595 52.633 212.546 60.771 C 191.825 73.69 177.074 95.271 173.35 120.444 C 172.742 124.541 172.424 128.742 172.424 133.016 C 172.424 160.893 185.829 185.644 206.558 201.154 L 188.664 272.538 L 184.773 288.039 C 180.198 306.298 182.752 324.372 190.423 339.648 L 233.039 366.879 L 235.128 377.533 C 241.873 379.601 249.066 380.723 256.578 380.751 C 257.196 380.751 257.822 380.751 258.439 380.751 C 265.951 380.724 273.145 379.601 279.889 377.533 C 279.889 377.533 326.074 349.881 324.231 336.486 L 322.527 329.821 L 323.703 340.14 C 331.411 324.855 334.828 306.327 330.244 288.039 L 326.156 271.733 L 326.166 271.733 Z"/>
      <path style="fill: rgb(224, 155, 45);" d="M 287.039 373.385 C 287.039 373.385 287.098 372.937 279.28 370.556 C 279.24 370.544 279.2 370.531 279.161 370.519 C 259.395 364.495 243.436 350.472 234.456 332.634 C 226.785 317.358 224.231 299.285 228.805 281.025 L 232.697 265.525 L 244.846 217.066 L 244.845 217.066 C 249.149 217.737 253.557 218.098 258.049 218.098 C 266.328 218.098 274.326 216.906 281.893 214.701 C 271.997 211.814 262.846 207.183 254.801 201.157 C 234.072 185.647 220.667 160.895 220.667 133.019 C 220.667 128.743 220.985 124.544 221.593 120.446 C 225.316 95.273 240.068 73.692 260.788 60.774 C 267.293 56.717 274.382 53.516 281.903 51.321 C 274.336 49.113 266.333 47.928 258.051 47.928 C 241.54 47.928 226.133 52.633 213.084 60.771 C 206.48 54.111 197.322 49.986 187.19 49.986 C 167.041 49.986 150.708 66.319 150.708 86.469 C 150.708 101.913 160.315 115.122 173.888 120.444 C 173.28 124.541 172.962 128.742 172.962 133.016 C 172.962 160.893 186.367 185.644 207.096 201.154 L 203.984 213.575 L 189.201 272.539 L 185.31 288.039 C 180.736 306.299 183.29 324.373 190.96 339.648 L 207.637 361.553 C 215.562 368.747 225.057 374.301 235.666 377.534 C 242.411 379.601 249.604 380.724 257.116 380.752 C 257.734 380.752 258.36 380.752 258.977 380.752 C 266.489 380.724 273.683 379.601 280.427 377.534 L 287.039 373.385 Z"/>
    </g>
    <g transform="matrix(0.790713, 0, 0, 0.790713, 55.647026, 47.92738)">
      <path style="fill:#4D4D4D;" d="M247.305,153.431h15.971c4.9,0,8.873-3.973,8.873-8.873c0-4.9-3.973-8.873-8.873-8.873h-15.971&#10;&#9;&#9;c-4.9,0-8.873,3.973-8.873,8.873C238.432,149.458,242.405,153.431,247.305,153.431z"/>
      <circle style="fill:#4D4D4D;" cx="307.357" cy="126.811" r="8.873"/>
      <circle style="fill:#4D4D4D;" cx="203.236" cy="126.811" r="8.873"/>
    </g>
  </g>
</svg>