<?xml version="1.0" encoding="utf-8"?>
<svg viewBox="0 -0.5260000228881836 100 100" xmlns="http://www.w3.org/2000/svg">
  <g transform="matrix(0.80626, 0, 0, 0.91232, -1031.838257, -973.241638)">
    <polygon points="1305.46 1083.32 1350.64 1070.04 1391.83 1093.95 1399.8 1124.51 1381.2 1141.79 1385.19 1156.4 1359.94 1168.36 1344 1159.06 1332.04 1171.02 1309.45 1163.05 1302.81 1140.46 1284.2 1129.83 1304.82 1107.24" style="fill: rgb(78, 78, 78); stroke: rgb(42, 42, 42); stroke-width: 6;"/>
    <g transform="matrix(0.997095, -0.076183, 0.076183, 0.997095, -77.223694, 119.360992)">
      <polygon style="fill: rgb(216, 216, 216); stroke: rgb(52, 52, 52); stroke-width: 2;" points="1314.483 1105.499 1314.483 1130.606 1327.315 1123.911"/>
      <polygon points="1311.53 1106.01 1311.53 1131.117 1324.362 1124.422" style="fill: rgb(255, 255, 255); stroke: rgb(52, 52, 52); stroke-width: 2;"/>
    </g>
    <g transform="matrix(0.659068, 0.752084, -0.752084, 0.659068, 1277.28064, -605.465759)">
      <polygon style="fill: rgb(216, 216, 216);" points="1314.483 1105.499 1314.483 1130.606 1327.315 1123.911"/>
      <polygon points="1311.53 1106.01 1311.53 1131.117 1324.362 1124.422" style="fill: rgb(255, 255, 255);"/>
    </g>
    <g transform="matrix(-0.587789, -0.809016, 0.809016, -0.587789, 1252.367798, 2848.970459)">
      <polygon style="fill: rgb(216, 216, 216);" points="1314.483 1105.499 1314.483 1130.606 1327.315 1123.911"/>
      <polygon points="1316.117 1100.896 1316.117 1126.003 1328.949 1119.308" style="fill: rgb(255, 255, 255);" transform="matrix(1, 0, 0, 1, 0.000109, -0.00013)"/>
      <polygon style="fill: rgb(216, 216, 216); stroke-width: 2; stroke: rgb(51, 51, 51);" points="1371.245 1100.859 1371.245 1125.967 1384.077 1119.271" transform="matrix(0.652098, 0.758135, -0.758135, 0.652098, 1323.408374, -657.09396)"/>
      <polygon style="fill: rgb(216, 216, 216); stroke-width: 2; stroke: rgb(51, 51, 51);" points="1337.114 1121.302 1337.114 1146.409 1349.946 1139.714" transform="matrix(0.04704, 0.998893, -0.998893, 0.04704, 2412.930917, -261.523656)"/>
      <polygon style="fill: rgb(216, 216, 216); stroke-width: 2; stroke: rgb(51, 51, 51);" points="1356.242 1080.69 1356.242 1105.797 1369.074 1099.102" transform="matrix(0.04704, 0.998893, -0.998893, 0.04704, 2390.591555, -319.332387)"/>
      <polygon style="fill: rgb(216, 216, 216); stroke-width: 2; stroke: rgb(51, 51, 51);" points="1335.837 1083.412 1335.837 1108.519 1348.669 1101.824" transform="matrix(-0.928444, 0.371472, -0.371472, -0.928444, 2995.580379, 1614.898907)"/>
      <polygon style="fill: rgb(216, 216, 216); stroke-width: 2; stroke: rgb(51, 51, 51);" points="1297.406 1077.135 1297.406 1102.242 1310.238 1095.547" transform="matrix(-0.829686, -0.55823, 0.55823, -0.829686, 1777.288239, 2721.620636)"/>
    </g>
    <g transform="matrix(0.477365, 0.878705, -0.878705, 0.477365, 1687.58667, -536.233765)">
      <polygon style="fill: rgb(216, 216, 216);" points="1314.483 1105.499 1314.483 1130.606 1327.315 1123.911"/>
      <polygon points="1311.53 1106.01 1311.53 1131.117 1324.362 1124.422" style="fill: rgb(255, 255, 255);"/>
    </g>
  </g>
</svg>