<?xml version="1.0" encoding="utf-8"?>
<svg viewBox="6.005000114440918 7.550000190734863 936 363.9750061035156" xmlns="http://www.w3.org/2000/svg">
  <g transform="matrix(0.772628, 0, 0, 0.841102, -679.367737, -198.301636)">
    <path d="M 1456.762 276.198 L 1571.754 431.97 L 1571.754 489.828 L 1299.056 489.828 L 1456.762 276.198 Z" style="fill: rgb(102, 102, 102);"/>
    <polygon style="fill: rgb(255, 255, 255);" points="1456.968 288.06 1505.978 352.369 1491.29 356.141 1480.969 371.65 1460.74 361.615 1448.032 367.005 1432.948 355.906 1409.601 366.573 1402.116 359.578"/>
    <path d="M 1302.583 281.486 L 1477.457 506.907 L 1127.707 506.907 Z" style="fill: rgb(102, 102, 102);"/>
    <polygon style="fill: rgb(255, 255, 255);" points="1302.81 291.605 1354.45 356.79 1342.78 362.385 1318.73 353.531 1304.09 358.643 1288.45 345.223 1270.13 362.278 1262.92 352.881 1249.13 361.105"/>
    <path d="M 1113.522 304.204 L 1259.477 501.92 L 967.564 501.92 Z" style="fill: rgb(102, 102, 102);"/>
    <polygon style="fill: rgb(255, 255, 255);" points="1113.712 313.08 1140.275 349.654 1136.478 358.664 1120.796 358.24 1113.535 364.249 1101.316 355.149 1086.439 375.067 1080.418 366.825 1068.907 374.037"/>
    <path d="M 994.89 287.543 L 1190.549 506.907 L 873.186 505.932 L 883.184 409.18 L 994.89 287.543 Z" style="fill: rgb(102, 102, 102);"/>
    <polygon style="fill: rgb(255, 255, 255);" points="996.272 299.18 1062.654 375.478 1044.259 386.445 1024.86 362.644 1000.4 383.942 976.306 367.152 957.785 380.383 944.942 372.59 919.529 385.592"/>
  </g>
  <g transform="matrix(0.772628, 0, 0, 0.841102, -499.996124, -191.860397)">
    <path d="M 1416.508 292.088 L 1530.7 437.259 L 1535.98 507.289 L 1258.802 505.718 L 1416.508 292.088 Z" style="fill: rgb(102, 102, 102);"/>
    <polygon style="fill: rgb(255, 255, 255);" points="1416.71 303.95 1465.72 368.259 1451.04 372.031 1440.72 387.54 1420.49 377.505 1407.78 382.895 1392.69 371.796 1369.35 382.463 1361.86 375.468"/>
    <path d="M 1302.583 281.486 L 1477.457 506.907 L 1127.707 506.907 Z" style="fill: rgb(102, 102, 102);"/>
    <polygon style="fill: rgb(255, 255, 255);" points="1302.81 291.605 1354.45 356.79 1342.78 362.385 1318.73 353.531 1304.09 358.643 1288.45 345.223 1270.13 362.278 1262.92 352.881 1249.13 361.105"/>
    <path d="M 1118.645 289.815 L 1264.6 487.531 L 972.687 487.531 Z" style="fill: rgb(102, 102, 102);"/>
    <polygon style="fill: rgb(255, 255, 255);" points="1118.831 298.691 1145.401 335.265 1141.601 344.275 1125.921 343.851 1118.661 349.86 1106.441 340.76 1091.561 360.678 1085.541 352.436 1074.031 359.648"/>
    <path d="M 997.478 292.087 L 1193.137 511.451 L 924.655 511.451 L 924.655 373.732 Z" style="fill: rgb(102, 102, 102);"/>
    <polygon style="fill: rgb(255, 255, 255);" points="997.734 300.798 1049.69 360.514 1035.29 369.097 1020.11 350.469 1000.97 367.138 982.107 353.997 967.612 364.353 957.56 358.253 937.67 368.43"/>
  </g>
</svg>