<?xml version="1.0" encoding="utf-8"?>
<svg version="1.1" id="Layer_1" x="0px" y="0px" viewBox="100.38999938964844 43.62099838256836 250 250" style="enable-background:new 0 0 512.001 512.001;" xmlns="http://www.w3.org/2000/svg">
  <path d="M 131.14 172.7 C 131.14 167.971 131.492 163.321 132.165 158.788 C 136.286 130.932 152.609 107.051 175.539 92.755 C 189.978 83.75 207.028 78.543 225.299 78.543 C 243.57 78.543 260.618 83.75 275.048 92.756 C 282.368 85.385 292.501 80.821 303.703 80.821 C 325.998 80.821 344.072 98.895 344.072 121.192 C 344.072 138.282 333.441 152.898 318.422 158.788 C 319.094 163.321 319.446 167.97 319.446 172.7 C 319.446 204.386 304.255 230.571 281.185 250.403 C 251.771 271.416 205.526 271.883 168.913 248.1 C 145.974 230.937 131.14 203.548 131.14 172.7 Z M 218.306 212.793 L 232.281 212.793 C 236.568 212.793 240.044 209.317 240.044 205.029 C 240.044 200.742 236.568 197.265 232.281 197.265 L 218.306 197.265 C 214.019 197.265 210.543 200.742 210.543 205.029 C 210.543 209.317 214.019 212.793 218.306 212.793 Z M 270.85 181.738 C 266.562 181.738 263.087 185.213 263.087 189.501 C 263.087 193.79 266.562 197.265 270.85 197.265 C 275.139 197.265 278.614 193.79 278.614 189.501 C 278.614 185.213 275.139 181.738 270.85 181.738 Z M 179.746 181.738 C 175.459 181.738 171.982 185.213 171.982 189.501 C 171.982 193.789 175.459 197.265 179.746 197.265 C 184.034 197.265 187.51 193.789 187.51 189.501 C 187.51 185.213 184.034 181.738 179.746 181.738 Z" style="fill: rgb(255, 255, 255);"/>
  <ellipse transform="matrix(0.707106, 0.707107, -0.707107, 0.707107, -37.473579, -230.676474)" cx="376.128" cy="118.979" rx="39.762" ry="39.762" style="fill: rgb(255, 255, 255);"/>
</svg>