<?xml version="1.0" encoding="utf-8"?>
<svg version="1.1" id="Layer_1" x="0px" y="0px" viewBox="108.13200378417969 32.99800109863281 300 450" style="enable-background:new 0 0 512.001 512.001;" xmlns="http://www.w3.org/2000/svg" xmlns:bx="https://boxy-svg.com">
  <g transform="matrix(-0.447838, 0.72915, -0.68208, -0.418929, 507.787506, 378.458649)" bx:origin="0.192 0.435">
    <rect x="219.314" y="262.179" width="168.418" height="62.527" transform="matrix(0.989654, 0.143477, -0.143475, 0.989654, -177.982962, 73.61212)" style="fill: rgb(247, 178, 57);" rx="31.264" ry="31.264" bx:origin="0.007 0.505"/>
    <path d="M 79.479 473.86 C 65.744 484.323 46.127 481.67 35.664 467.935 C 25.201 454.2 27.854 434.583 41.59 424.12 L 125.825 359.955 C 133.508 354.103 143.031 352.354 151.763 354.353 L 69.919 416.696 C 56.183 427.159 53.53 446.775 63.993 460.511 C 68.604 466.563 74.992 470.464 81.871 472.038 Z" style="fill: rgb(224, 155, 45);" transform="matrix(-0.707107, -0.707107, 0.707107, -0.707107, -140.278125, 775.710316)"/>
  </g>
  <g transform="matrix(0.76745, -0.43839, 0.43839, 0.76745, 38.785637, 139.657349)" bx:origin="0.561 0.173">
    <rect x="219.314" y="262.179" width="168.418" height="62.527" transform="matrix(0.141908, -0.98988, 0.98988, 0.141907, -272.415492, 645.149875)" style="fill: rgb(247, 178, 57);" rx="31.264" ry="31.264" bx:origin="0.209 0.424"/>
    <path d="M 22.553 434.47 L 37.58 329.651 C 40.03 312.56 55.872 300.69 72.963 303.14 C 73.426 303.206 73.886 303.283 74.342 303.369 C 68.107 308.166 63.666 315.306 62.462 323.708 L 47.435 428.527 C 45.051 445.155 56.221 460.601 72.568 463.683 C 66.119 468.644 57.753 471.1 49.063 469.854 C 31.972 467.403 20.103 451.561 22.553 434.47 Z" style="fill: rgb(224, 155, 45);"/>
  </g>
  <path style="fill: rgb(247, 178, 57);" d="M 323.303 278.302 L 303.902 208.968 C 325.585 193.551 339.73 168.219 339.73 139.585 C 339.73 135.31 339.412 131.11 338.804 127.013 C 336.851 104.362 320.64 79.746 299.608 67.341 C 300.902 68.148 300.902 68.148 299.608 67.341 C 286.568 59.202 271.161 54.497 254.65 54.497 C 238.139 54.497 222.732 59.202 209.683 67.34 C 188.962 80.259 174.211 101.84 170.487 127.013 C 169.879 131.11 169.561 135.311 169.561 139.585 C 169.561 167.462 182.966 192.213 203.695 207.723 L 185.801 279.107 L 181.91 294.608 C 177.335 312.867 179.889 330.941 187.56 346.217 L 230.176 373.448 L 232.265 384.102 C 239.01 386.17 246.203 387.292 253.715 387.32 C 254.333 387.32 254.959 387.32 255.576 387.32 C 263.088 387.293 270.282 386.17 277.026 384.102 C 277.026 384.102 323.211 356.45 321.368 343.055 L 319.664 336.39 L 320.84 346.709 C 328.548 331.424 331.965 312.896 327.381 294.608 L 323.293 278.302 L 323.303 278.302 Z" transform="matrix(0.985367, 0.170448, -0.170448, 0.985367, 41.379852, -40.171297)"/>
  <path style="fill: rgb(224, 155, 45);" d="M 284.578 375.265 C 284.578 375.265 284.637 374.817 276.819 372.436 C 276.779 372.424 276.739 372.411 276.7 372.399 C 256.934 366.375 240.975 352.352 231.995 334.514 C 224.324 319.238 221.77 301.165 226.344 282.905 L 230.236 267.405 L 242.385 218.946 L 242.384 218.946 C 246.688 219.617 251.096 219.978 255.588 219.978 C 263.867 219.978 271.865 218.786 279.432 216.581 C 269.536 213.694 260.385 209.063 252.34 203.037 C 231.611 187.527 218.206 162.775 218.206 134.899 C 218.206 130.623 218.524 126.424 219.132 122.326 C 222.855 97.153 237.607 75.572 258.327 62.654 C 264.832 58.597 271.921 55.396 279.442 53.201 C 271.875 50.993 263.872 49.808 255.59 49.808 C 239.079 49.808 223.672 54.513 210.623 62.651 C 196.955 70.575 174.716 87.834 171.427 122.324 C 170.819 126.421 170.501 130.622 170.501 134.896 C 170.501 162.773 183.906 187.524 204.635 203.034 L 201.523 215.455 L 186.131 274.054 L 182.484 289.919 C 177.91 308.179 180.22 326.497 187.89 341.772 C 188.466 345.027 202.533 361.549 205.176 363.433 C 213.101 370.627 222.596 376.181 233.205 379.414 C 239.95 381.481 247.143 382.604 254.655 382.632 C 255.273 382.632 255.899 382.632 256.516 382.632 C 264.028 382.604 271.222 381.481 277.966 379.414 L 284.578 375.265 Z" transform="matrix(0.985367, 0.170449, -0.170449, 0.985367, 40.184074, -35.619745)"/>
  <g transform="matrix(0.779142, 0.134776, -0.134776, 0.779142, 84.102417, 22.524502)">
    <path style="fill: rgb(77, 77, 77);" d="M 310.709 144.293 C 312.274 140.063 319.174 138.717 326.121 141.287 L 348.758 149.662 C 350.338 150.247 352.146 150.912 353.419 151.751 C 351.953 156.768 349.678 161.805 345.851 165.948 C 345.061 165.755 343.889 165.277 343.09 164.981 L 320.453 156.606 C 313.506 154.036 309.144 148.523 310.709 144.293 Z"/>
    <circle style="fill:#4D4D4D;" cx="321.375" cy="96.652" r="8.873"/>
  </g>
  <ellipse transform="matrix(-0.791936, 0.610603, -0.610604, -0.791936, 479.30584, -74.630713)" cx="246.051" cy="14.667" rx="24.787" ry="24.787" style="fill: rgb(247, 178, 57);"/>
  <ellipse transform="matrix(-0.985364, -0.170448, 0.170448, -0.985367, 471.820478, 187.580495)" cx="209.533" cy="89.362" rx="15.014" ry="17.858" style="fill: rgb(224, 155, 45);"/>
  <g transform="matrix(-0.074035, 0.837643, -0.837643, -0.074035, 484.315216, 341.087158)" bx:origin="0.185 0.165">
    <g transform="matrix(0.083913, -0.996473, 0.996473, 0.083913, -276.415894, 349.543579)" bx:origin="0.593 0.181">
      <rect x="219.314" y="262.179" width="168.418" height="62.527" transform="matrix(0.141908, -0.98988, 0.98988, 0.141907, -272.415492, 645.149936)" style="fill: rgb(247, 178, 57);" rx="31.264" ry="31.264" bx:origin="0.844 0.589"/>
      <path d="M 22.553 434.47 L 37.58 329.651 C 40.03 312.56 55.872 300.69 72.963 303.14 C 73.426 303.206 73.886 303.283 74.342 303.369 C 68.107 308.166 63.666 315.306 62.462 323.708 L 47.435 428.527 C 45.051 445.155 56.221 460.601 72.568 463.683 C 66.119 468.644 57.753 471.1 49.063 469.854 C 31.972 467.403 20.103 451.561 22.553 434.47 Z" style="fill: rgb(224, 155, 45);"/>
    </g>
  </g>
  <g transform="matrix(0.505846, 0.650194, -0.624085, 0.485533, 501.86496, 26.794064)" bx:origin="0.192 0.435">
    <rect x="219.314" y="262.179" width="168.418" height="62.527" transform="matrix(0.989654, 0.143477, -0.143475, 0.989654, -177.982962, 73.61212)" style="fill: rgb(247, 178, 57);" rx="31.264" ry="31.264" bx:origin="0.007 0.505"/>
    <path d="M 79.479 473.86 C 65.744 484.323 46.127 481.67 35.664 467.935 C 25.201 454.2 27.854 434.583 41.59 424.12 L 125.825 359.955 C 133.508 354.103 143.031 352.354 151.763 354.353 L 69.919 416.696 C 56.183 427.159 53.53 446.775 63.993 460.511 C 68.604 466.563 74.992 470.464 81.871 472.038 Z" style="fill: rgb(224, 155, 45);" transform="matrix(-0.707107, -0.707107, 0.707107, -0.707107, -140.278125, 775.710316)"/>
  </g>
</svg>