<?xml version="1.0" encoding="utf-8"?>
<svg viewBox="0 0 1680 976" xmlns="http://www.w3.org/2000/svg">
  <path d="M -245.984 417.112 L -125.141 417.112 L -125.141 189.048 L 87.934 189.048 L 87.934 342.226 L 167.442 342.226 L 167.442 566.885 L 186.521 566.885 L 186.521 383.072 L 301.01 383.072 L 301.01 566.885 L 345.532 566.885 L 345.532 474.976 L 421.857 474.976 L 421.857 165.22 L 580.866 165.22 L 580.866 444.341 L 692.175 444.341 L 692.175 250.321 L 873.449 250.321 L 873.449 420.516 L 1026.1 420.516 L 1026.1 566.885 L 1134.227 566.885 L 1134.227 362.651 L 1290.058 362.651 L 1290.058 451.148 L 1433.169 451.148 L 1433.169 155.008 L 1534.936 155.008 L 1534.936 566.885 L 1550.836 566.885 L 1550.836 338.82 L 1658.964 338.82 L 1658.964 566.885 L 1719.385 566.885 L 1719.385 873.24 L -236.448 873.24 L -236.448 631.559 L -245.984 631.559 Z" style="fill: rgb(31, 54, 72);"/>
</svg>