<?xml version="1.0" encoding="utf-8"?>
<svg version="1.1" x="0px" y="0px" viewBox="0 0 1000 1000" enable-background="new 0 0 1000 1000" xmlns="http://www.w3.org/2000/svg">
  <path d="M 953 855.2 C 944 816.9 914 767.4 869.7 722.5 C 814.5 667.8 752.5 635.5 712.2 636.3 L 578.8 515.1 L 680 414 C 756.7 447.1 849 432.2 911.8 369.6 C 968.1 312.7 985.6 232.8 965.1 161.9 L 812.3 314.4 L 669.1 171 L 821.8 18.4 C 750.1 -2.4 670.4 15.1 613.9 71.4 C 551.3 133.9 536.3 226.8 569.4 303.8 L 463.3 410.1 L 412.1 363.6 L 401.2 374.7 L 236.1 209.4 L 245.7 206.5 L 202.4 155.8 L 190.7 155.8 L 190.7 142.1 L 116.9 77 L 72.3 124.4 L 130.9 204.3 L 124.8 204.7 L 124.8 204.3 L 190 247.7 L 203.5 238.2 L 371 403.2 L 383.8 391.4 L 346.7 429 L 391.9 481.2 L 26.6 846.5 L 136.7 956.7 L 494.2 599.6 L 607.2 730.8 C 598.2 770.2 631.4 839.1 691.9 899.9 C 737.2 945.3 786.7 975.3 825.6 983.8 L 830.7 990.1 L 834.8 985.2 C 854.3 988.2 870.6 985 881.1 974.5 L 943.9 911.9 C 954.4 901.4 957.3 885 954.9 865.5 L 959 861.2 L 953 855.2 L 953 855.2 Z" style="fill: rgb(255, 255, 255);"/>
</svg>