<?xml version="1.0" encoding="utf-8"?>
<svg viewBox="0 0 1680 976" xmlns="http://www.w3.org/2000/svg" xmlns:bx="https://boxy-svg.com">
  <rect x="0.394" y="0.36" width="1697.355" height="977.72" style="fill: rgb(187, 249, 255);"/>
  <g transform="matrix(1, 0, 0, 1, -1.728129, -50.115742)">
    <g transform="matrix(2.029541, 0, 0, 2.209409, -1811.660278, -248.36969)">
      <path d="M 1456.762 276.198 L 1571.754 431.97 L 1571.754 489.828 L 1299.056 489.828 L 1456.762 276.198 Z" style="fill: rgb(102, 102, 102);"/>
      <polygon style="fill: rgb(255, 255, 255);" points="1456.968 288.06 1505.978 352.369 1491.29 356.141 1480.969 371.65 1460.74 361.615 1448.032 367.005 1432.948 355.906 1409.601 366.573 1402.116 359.578"/>
      <path d="M 1302.583 281.486 L 1477.457 506.907 L 1127.707 506.907 Z" style="fill: rgb(102, 102, 102);"/>
      <polygon style="fill: rgb(255, 255, 255);" points="1302.81 291.605 1354.45 356.79 1342.78 362.385 1318.73 353.531 1304.09 358.643 1288.45 345.223 1270.13 362.278 1262.92 352.881 1249.13 361.105"/>
      <path d="M 1113.522 304.204 L 1259.477 501.92 L 967.564 501.92 Z" style="fill: rgb(102, 102, 102);"/>
      <polygon style="fill: rgb(255, 255, 255);" points="1113.712 313.08 1140.275 349.654 1136.478 358.664 1120.796 358.24 1113.535 364.249 1101.316 355.149 1086.439 375.067 1080.418 366.825 1068.907 374.037"/>
      <path d="M 994.89 287.543 L 1190.549 506.907 L 873.186 505.932 L 883.184 409.18 L 994.89 287.543 Z" style="fill: rgb(102, 102, 102);"/>
      <polygon style="fill: rgb(255, 255, 255);" points="996.272 299.18 1062.654 375.478 1044.259 386.445 1024.86 362.644 1000.4 383.942 976.306 367.152 957.785 380.383 944.942 372.59 919.529 385.592"/>
    </g>
    <g transform="matrix(2.029541, 0, 0, 2.209409, -1340.486328, -231.449799)">
      <path d="M 1416.508 292.088 L 1530.7 437.259 L 1535.98 507.289 L 1258.802 505.718 L 1416.508 292.088 Z" style="fill: rgb(102, 102, 102);"/>
      <polygon style="fill: rgb(255, 255, 255);" points="1416.71 303.95 1465.72 368.259 1451.04 372.031 1440.72 387.54 1420.49 377.505 1407.78 382.895 1392.69 371.796 1369.35 382.463 1361.86 375.468"/>
      <path d="M 1302.583 281.486 L 1477.457 506.907 L 1127.707 506.907 Z" style="fill: rgb(102, 102, 102);"/>
      <polygon style="fill: rgb(255, 255, 255);" points="1302.81 291.605 1354.45 356.79 1342.78 362.385 1318.73 353.531 1304.09 358.643 1288.45 345.223 1270.13 362.278 1262.92 352.881 1249.13 361.105"/>
      <path d="M 1118.645 289.815 L 1264.6 487.531 L 972.687 487.531 Z" style="fill: rgb(102, 102, 102);"/>
      <polygon style="fill: rgb(255, 255, 255);" points="1118.831 298.691 1145.401 335.265 1141.601 344.275 1125.921 343.851 1118.661 349.86 1106.441 340.76 1091.561 360.678 1085.541 352.436 1074.031 359.648"/>
      <path d="M 997.478 292.087 L 1193.137 511.451 L 924.655 511.451 L 924.655 373.732 Z" style="fill: rgb(102, 102, 102);"/>
      <polygon style="fill: rgb(255, 255, 255);" points="997.734 300.798 1049.69 360.514 1035.29 369.097 1020.11 350.469 1000.97 367.138 982.107 353.997 967.612 364.353 957.56 358.253 937.67 368.43"/>
    </g>
  </g>
  <g transform="matrix(-1.041559, 0, 0, 1.041559, 1568.668701, -61.465191)">
    <path d="M 978.007 526.326 L 1105.114 702.284 L 1105.114 871.237 L 728.852 871.237 Z" style="fill: rgb(135, 135, 135);"/>
    <polygon style="fill: rgb(255, 255, 255);" points="978.777 546.509 908.211 647.011 929.093 653.932 958.255 629.531 997.859 676.143 1017.3 649.926 1068.424 698.721 1085.756 693.624"/>
    <path d="M 725.783 483.398 L 1002.065 865.865 L 449.501 865.865 Z" style="fill: rgb(135, 135, 135);"/>
    <polygon style="fill: rgb(255, 255, 255);" points="726.638 505.777 648.389 617.226 671.546 624.899 703.88 597.841 747.797 649.53 769.354 620.455 826.046 674.564 845.262 668.911"/>
    <path d="M 468.204 549.056 L 698.795 868.274 L 237.607 868.274 Z" style="fill: rgb(135, 135, 135);"/>
    <polygon style="fill: rgb(255, 255, 255);" points="437.305 710.22 371.997 617.205 391.323 610.798 418.313 633.382 454.968 590.244 472.96 614.508 520.276 569.345 536.315 574.064" transform="matrix(-1, 0, 0, -1, 908.31197, 1279.564909)"/>
    <path d="M 61.036 534.209 L 370.154 888.381 L -171.692 888.381 L -171.692 800.855 Z" style="fill: rgb(135, 135, 135);"/>
    <polygon style="fill: rgb(255, 255, 255);" points="16.332 711.233 -71.219 608.033 -45.308 600.927 -9.128 625.983 40.007 578.119 64.129 605.042 127.557 554.935 149.057 560.168" transform="matrix(-1, 0, 0, -1, 77.838006, 1266.168006)"/>
    <path d="M 1373.646 551.925 L 1531.501 757.61 L 1533.208 893.71 L 1124.491 896.839 L 1373.646 551.925 Z" style="fill: rgb(135, 135, 135);"/>
    <polygon style="fill: rgb(255, 255, 255);" points="1334.925 762.061 1245.903 640.833 1271.74 632.269 1307.825 662.46 1356.832 604.782 1380.887 637.226 1444.147 576.85 1465.591 583.154" transform="matrix(-1, 0, 0, -1, 2711.493969, 1338.910911)"/>
    <path d="M 1140.213 504.307 L 1416.495 886.774 L 863.931 886.774 Z" style="fill: rgb(135, 135, 135);"/>
    <polygon style="fill: rgb(255, 255, 255);" points="1141.068 526.689 1062.819 638.137 1085.975 645.806 1118.311 618.75 1162.228 670.438 1183.784 641.367 1240.476 695.474 1259.692 689.82"/>
    <path d="M 833.464 573.18 L 1064.056 892.399 L 602.867 892.399 Z" style="fill: rgb(135, 135, 135);"/>
    <polygon style="fill: rgb(255, 255, 255);" points="806.077 735.95 740.769 642.935 760.095 636.53 787.085 659.114 823.74 615.972 841.731 640.236 889.048 595.078 905.086 599.797" transform="matrix(-1, 0, 0, -1, 1645.854961, 1331.028115)"/>
    <path d="M 296.347 505.259 L 605.465 859.431 L 63.62 859.431 L 63.62 771.904 Z" style="fill: rgb(135, 135, 135);"/>
    <polygon style="fill: rgb(255, 255, 255);" points="297.302 525.982 209.751 629.185 235.661 636.294 271.842 611.235 320.977 659.1 345.098 632.178 408.526 682.283 430.027 677.047"/>
  </g>
  <rect x="0.308" y="787.095" width="1686.436" height="189.704" style="fill: rgb(151, 219, 153);"/>
  <path d="M 2345.442 856.88 L 2466.955 1081.128 L 2223.928 1081.128 L 2345.442 856.88 Z" transform="matrix(0, 1, -1, 0, 2475.436279, -2165.799253)" style="fill: rgb(72, 72, 72);" bx:shape="triangle 2223.928 856.88 243.027 224.248 0.5 0 1@19f5c007"/>
  <g transform="matrix(1.136621, 0, 0, 1.136621, -88.681038, -91.633438)">
    <g transform="matrix(1.95551, 0, 0, 1.715149, -2270.154541, -74.894379)">
      <rect class="cls-1" x="53.97" y="175.63" width="10.22" height="31.8" transform="matrix(0.999997, 0, 0, 1, 1742.528939, 349.585595)" style="fill: rgb(141, 94, 59);"/>
      <rect class="cls-2" x="64.19" y="175.63" width="10.22" height="31.8" transform="matrix(1.000009, 0, 0, 1, 1742.528173, 349.585595)" style="fill: rgb(125, 86, 53);"/>
      <polygon class="cls-3" points="1806.719 349.586 1837.819 412.656 1827.449 409.376 1848.189 441.355 1836.619 441.355 1856.959 471.896 1847.789 471.896 1864.139 502.445 1856.159 502.445 1870.909 535.206 1806.719 535.206 1806.719 349.586" style="fill: rgb(65, 150, 92);"/>
      <polygon class="cls-4" points="1806.719 349.586 1775.619 412.656 1785.989 409.376 1765.259 441.355 1776.819 441.355 1756.489 471.896 1765.659 471.896 1749.309 502.445 1757.279 502.445 1742.529 535.206 1806.719 535.206 1806.719 349.586" style="fill: rgb(92, 175, 99);"/>
    </g>
    <g transform="matrix(1.577864, 0, 0, 1.579678, -1442.798462, 18.491856)">
      <rect class="cls-1" x="53.97" y="175.63" width="10.22" height="31.8" transform="matrix(0.999997, 0, 0, 1, 1742.528939, 349.585595)" style="fill: rgb(141, 94, 59);"/>
      <rect class="cls-2" x="64.19" y="175.63" width="10.22" height="31.8" transform="matrix(1.000009, 0, 0, 1, 1742.528173, 349.585595)" style="fill: rgb(125, 86, 53);"/>
      <polygon class="cls-3" points="1806.719 349.586 1837.819 412.656 1827.449 409.376 1848.189 441.355 1836.619 441.355 1856.959 471.896 1847.789 471.896 1864.139 502.445 1856.159 502.445 1870.909 535.206 1806.719 535.206 1806.719 349.586" style="fill: rgb(65, 150, 92);"/>
      <polygon class="cls-4" points="1806.719 349.586 1775.619 412.656 1785.989 409.376 1765.259 441.355 1776.819 441.355 1756.489 471.896 1765.659 471.896 1749.309 502.445 1757.279 502.445 1742.529 535.206 1806.719 535.206 1806.719 349.586" style="fill: rgb(92, 175, 99);"/>
    </g>
    <g transform="matrix(1.393345, 0, 0, 1.394944, -2310.102539, 70.361259)">
      <rect class="cls-1" x="53.97" y="175.63" width="10.22" height="31.8" transform="matrix(0.999997, 0, 0, 1, 1742.528939, 349.585595)" style="fill: rgb(141, 94, 59);"/>
      <rect class="cls-2" x="64.19" y="175.63" width="10.22" height="31.8" transform="matrix(1.000009, 0, 0, 1, 1742.528173, 349.585595)" style="fill: rgb(125, 86, 53);"/>
      <polygon class="cls-3" points="1806.719 349.586 1837.819 412.656 1827.449 409.376 1848.189 441.355 1836.619 441.355 1856.959 471.896 1847.789 471.896 1864.139 502.445 1856.159 502.445 1870.909 535.206 1806.719 535.206 1806.719 349.586" style="fill: rgb(65, 150, 92);"/>
      <polygon class="cls-4" points="1806.719 349.586 1775.619 412.656 1785.989 409.376 1765.259 441.355 1776.819 441.355 1756.489 471.896 1765.659 471.896 1749.309 502.445 1757.279 502.445 1742.529 535.206 1806.719 535.206 1806.719 349.586" style="fill: rgb(92, 175, 99);"/>
    </g>
    <g transform="matrix(1.356439, 0, 0, 1.357998, -2158.308594, 124.150887)">
      <rect class="cls-1" x="53.97" y="175.63" width="10.22" height="31.8" transform="matrix(0.999997, 0, 0, 1, 1742.528939, 349.585595)" style="fill: rgb(141, 94, 59);"/>
      <rect class="cls-2" x="64.19" y="175.63" width="10.22" height="31.8" transform="matrix(1.000009, 0, 0, 1, 1742.528173, 349.585595)" style="fill: rgb(125, 86, 53);"/>
      <polygon class="cls-3" points="1806.719 349.586 1837.819 412.656 1827.449 409.376 1848.189 441.355 1836.619 441.355 1856.959 471.896 1847.789 471.896 1864.139 502.445 1856.159 502.445 1870.909 535.206 1806.719 535.206 1806.719 349.586" style="fill: rgb(65, 150, 92);"/>
      <polygon class="cls-4" points="1806.719 349.586 1775.619 412.656 1785.989 409.376 1765.259 441.355 1776.819 441.355 1756.489 471.896 1765.659 471.896 1749.309 502.445 1757.279 502.445 1742.529 535.206 1806.719 535.206 1806.719 349.586" style="fill: rgb(92, 175, 99);"/>
    </g>
    <g transform="matrix(1.393345, 0, 0, 1.394944, -1931.540283, 84.411469)">
      <rect class="cls-1" x="53.97" y="175.63" width="10.22" height="31.8" transform="matrix(0.999997, 0, 0, 1, 1742.528939, 349.585595)" style="fill: rgb(141, 94, 59);"/>
      <rect class="cls-2" x="64.19" y="175.63" width="10.22" height="31.8" transform="matrix(1.000009, 0, 0, 1, 1742.528173, 349.585595)" style="fill: rgb(125, 86, 53);"/>
      <polygon class="cls-3" points="1806.719 349.586 1837.819 412.656 1827.449 409.376 1848.189 441.355 1836.619 441.355 1856.959 471.896 1847.789 471.896 1864.139 502.445 1856.159 502.445 1870.909 535.206 1806.719 535.206 1806.719 349.586" style="fill: rgb(65, 150, 92);"/>
      <polygon class="cls-4" points="1806.719 349.586 1775.619 412.656 1785.989 409.376 1765.259 441.355 1776.819 441.355 1756.489 471.896 1765.659 471.896 1749.309 502.445 1757.279 502.445 1742.529 535.206 1806.719 535.206 1806.719 349.586" style="fill: rgb(92, 175, 99);"/>
    </g>
    <g transform="matrix(1.393345, 0, 0, 1.394944, -1816.713623, 89.520912)">
      <rect class="cls-1" x="53.97" y="175.63" width="10.22" height="31.8" transform="matrix(0.999997, 0, 0, 1, 1742.528939, 349.585595)" style="fill: rgb(141, 94, 59);"/>
      <rect class="cls-2" x="64.19" y="175.63" width="10.22" height="31.8" transform="matrix(1.000009, 0, 0, 1, 1742.528173, 349.585595)" style="fill: rgb(125, 86, 53);"/>
      <polygon class="cls-3" points="1806.719 349.586 1837.819 412.656 1827.449 409.376 1848.189 441.355 1836.619 441.355 1856.959 471.896 1847.789 471.896 1864.139 502.445 1856.159 502.445 1870.909 535.206 1806.719 535.206 1806.719 349.586" style="fill: rgb(65, 150, 92);"/>
      <polygon class="cls-4" points="1806.719 349.586 1775.619 412.656 1785.989 409.376 1765.259 441.355 1776.819 441.355 1756.489 471.896 1765.659 471.896 1749.309 502.445 1757.279 502.445 1742.529 535.206 1806.719 535.206 1806.719 349.586" style="fill: rgb(92, 175, 99);"/>
    </g>
    <g transform="matrix(1.393345, 0, 0, 1.394944, -1421.614746, 104.742027)">
      <rect class="cls-1" x="53.97" y="175.63" width="10.22" height="31.8" transform="matrix(0.999997, 0, 0, 1, 1742.528939, 349.585595)" style="fill: rgb(141, 94, 59);"/>
      <rect class="cls-2" x="64.19" y="175.63" width="10.22" height="31.8" transform="matrix(1.000009, 0, 0, 1, 1742.528173, 349.585595)" style="fill: rgb(125, 86, 53);"/>
      <polygon class="cls-3" points="1806.719 349.586 1837.819 412.656 1827.449 409.376 1848.189 441.355 1836.619 441.355 1856.959 471.896 1847.789 471.896 1864.139 502.445 1856.159 502.445 1870.909 535.206 1806.719 535.206 1806.719 349.586" style="fill: rgb(65, 150, 92);"/>
      <polygon class="cls-4" points="1806.719 349.586 1775.619 412.656 1785.989 409.376 1765.259 441.355 1776.819 441.355 1756.489 471.896 1765.659 471.896 1749.309 502.445 1757.279 502.445 1742.529 535.206 1806.719 535.206 1806.719 349.586" style="fill: rgb(92, 175, 99);"/>
    </g>
  </g>
</svg>