<?xml version="1.0" encoding="utf-8"?>
<svg viewBox="-35.86800003051758 -0.3720000088214874 936 363.9750061035156" xmlns="http://www.w3.org/2000/svg">
  <path d="M 419.315 89.669 L 471.51 161.924 L 471.51 231.303 L 317.002 231.303 Z" style="fill: rgb(135, 135, 135);"/>
  <polygon style="fill: rgb(255, 255, 255);" points="419.631 97.957 390.654 139.227 399.229 142.069 411.204 132.049 427.467 151.19 435.45 140.424 456.444 160.461 463.561 158.368"/>
  <path d="M 315.742 72.041 L 429.194 229.097 L 202.29 229.097 Z" style="fill: rgb(135, 135, 135);"/>
  <polygon style="fill: rgb(255, 255, 255);" points="316.093 81.231 283.961 126.996 293.47 130.147 306.748 119.036 324.782 140.261 333.634 128.322 356.914 150.541 364.805 148.22"/>
  <path d="M 209.97 99.003 L 304.66 230.086 L 115.278 230.086 Z" style="fill: rgb(135, 135, 135);"/>
  <polygon style="fill: rgb(255, 255, 255);" points="197.282 165.183 170.464 126.987 178.4 124.356 189.483 133.63 204.535 115.916 211.923 125.88 231.353 107.334 237.939 109.272" transform="matrix(-1, 0, 0, -1, 408.403003, 272.517003)"/>
  <path d="M 42.771 92.906 L 169.707 238.343 L -52.796 238.343 L -52.796 202.401 Z" style="fill: rgb(135, 135, 135);"/>
  <polygon style="fill: rgb(255, 255, 255);" points="24.414 165.599 -11.538 123.221 -0.898 120.303 13.959 130.592 34.136 110.937 44.041 121.993 70.087 101.417 78.916 103.566" transform="matrix(-1, 0, 0, -1, 67.378004, 267.015977)"/>
  <path d="M 581.78 100.181 L 646.601 184.643 L 647.302 240.531 L 479.467 241.816 L 581.78 100.181 Z" style="fill: rgb(135, 135, 135);"/>
  <polygon style="fill: rgb(255, 255, 255);" points="565.879 186.471 529.323 136.69 539.933 133.173 554.751 145.571 574.875 121.886 584.753 135.209 610.73 110.416 619.536 113.005" transform="matrix(-1, 0, 0, -1, 1148.85904, 296.886982)"/>
  <path d="M 485.923 80.627 L 599.375 237.683 L 372.471 237.683 Z" style="fill: rgb(135, 135, 135);"/>
  <polygon style="fill: rgb(255, 255, 255);" points="486.274 89.818 454.142 135.583 463.651 138.732 476.929 127.622 494.963 148.847 503.815 136.909 527.095 159.128 534.986 156.806"/>
  <path d="M 359.96 108.909 L 454.65 239.993 L 265.268 239.993 Z" style="fill: rgb(135, 135, 135);"/>
  <polygon style="fill: rgb(255, 255, 255);" points="348.714 175.749 321.896 137.553 329.832 134.923 340.915 144.197 355.967 126.481 363.355 136.445 382.785 117.901 389.371 119.839" transform="matrix(-1, 0, 0, -1, 711.267002, 293.649981)"/>
  <path d="M 139.399 81.018 L 266.335 226.455 L 43.832 226.455 L 43.832 190.513 Z" style="fill: rgb(135, 135, 135);"/>
  <polygon style="fill: rgb(255, 255, 255);" points="139.791 89.528 103.839 131.907 114.479 134.826 129.336 124.536 149.513 144.191 159.418 133.136 185.464 153.711 194.293 151.561"/>
</svg>