<?xml version="1.0" encoding="utf-8"?>
<svg viewBox="0 0 1680 976" xmlns="http://www.w3.org/2000/svg" xmlns:bx="https://boxy-svg.com">
  <rect x="-8.981" y="557.01" width="1695.816" height="427.664" style="fill: rgb(151, 219, 153);"/>
  <rect x="-17.573" y="-8.673" width="1711.056" height="618.17" style="fill: rgb(187, 249, 255);"/>
  <ellipse transform="matrix(-0.173593, 0.984817, -0.984749, -0.173979, 725.690365, -1135.68796)" cx="1335.433" cy="333.984" rx="100.669" ry="100.56" style="fill: rgb(255, 248, 41);"/>
  <g transform="matrix(2.510755, 0, 0, 2.513644, -4279.064453, -644.592957)">
    <rect class="cls-1" x="53.97" y="175.63" width="10.22" height="31.8" transform="matrix(0.999997, 0, 0, 1, 1742.528939, 349.585595)" style="fill: rgb(141, 94, 59);"/>
    <rect class="cls-2" x="64.19" y="175.63" width="10.22" height="31.8" transform="matrix(1.000009, 0, 0, 1, 1742.528173, 349.585595)" style="fill: rgb(125, 86, 53);"/>
    <polygon class="cls-3" points="1806.719 349.586 1837.819 412.656 1827.449 409.376 1848.189 441.355 1836.619 441.355 1856.959 471.896 1847.789 471.896 1864.139 502.445 1856.159 502.445 1870.909 535.206 1806.719 535.206 1806.719 349.586" style="fill: rgb(65, 150, 92);"/>
    <polygon class="cls-4" points="1806.719 349.586 1775.619 412.656 1785.989 409.376 1765.259 441.355 1776.819 441.355 1756.489 471.896 1765.659 471.896 1749.309 502.445 1757.279 502.445 1742.529 535.206 1806.719 535.206 1806.719 349.586" style="fill: rgb(92, 175, 99);"/>
  </g>
  <g transform="matrix(2.24398, 0, 0, 2.246562, -3939.011475, -378.766083)">
    <rect class="cls-1" x="53.97" y="175.63" width="10.22" height="31.8" transform="matrix(0.999997, 0, 0, 1, 1742.528939, 349.585595)" style="fill: rgb(141, 94, 59);"/>
    <rect class="cls-2" x="64.19" y="175.63" width="10.22" height="31.8" transform="matrix(1.000009, 0, 0, 1, 1742.528173, 349.585595)" style="fill: rgb(125, 86, 53);"/>
    <polygon class="cls-3" points="1806.719 349.586 1837.819 412.656 1827.449 409.376 1848.189 441.355 1836.619 441.355 1856.959 471.896 1847.789 471.896 1864.139 502.445 1856.159 502.445 1870.909 535.206 1806.719 535.206 1806.719 349.586" style="fill: rgb(65, 150, 92);"/>
    <polygon class="cls-4" points="1806.719 349.586 1775.619 412.656 1785.989 409.376 1765.259 441.355 1776.819 441.355 1756.489 471.896 1765.659 471.896 1749.309 502.445 1757.279 502.445 1742.529 535.206 1806.719 535.206 1806.719 349.586" style="fill: rgb(92, 175, 99);"/>
  </g>
  <g transform="matrix(2.24398, 0, 0, 2.246562, -2719.874268, -538.559143)">
    <rect class="cls-1" x="53.97" y="175.63" width="10.22" height="31.8" transform="matrix(0.999997, 0, 0, 1, 1742.528939, 349.585595)" style="fill: rgb(141, 94, 59);"/>
    <rect class="cls-2" x="64.19" y="175.63" width="10.22" height="31.8" transform="matrix(1.000009, 0, 0, 1, 1742.528173, 349.585595)" style="fill: rgb(125, 86, 53);"/>
    <polygon class="cls-3" points="1806.719 349.586 1837.819 412.656 1827.449 409.376 1848.189 441.355 1836.619 441.355 1856.959 471.896 1847.789 471.896 1864.139 502.445 1856.159 502.445 1870.909 535.206 1806.719 535.206 1806.719 349.586" style="fill: rgb(65, 150, 92);"/>
    <polygon class="cls-4" points="1806.719 349.586 1775.619 412.656 1785.989 409.376 1765.259 441.355 1776.819 441.355 1756.489 471.896 1765.659 471.896 1749.309 502.445 1757.279 502.445 1742.529 535.206 1806.719 535.206 1806.719 349.586" style="fill: rgb(92, 175, 99);"/>
  </g>
  <g transform="matrix(2.361092, 0, 0, 2.363809, -2754.265625, -517.953552)">
    <rect class="cls-1" x="53.97" y="175.63" width="10.22" height="31.8" transform="matrix(0.999997, 0, 0, 1, 1742.528939, 349.585595)" style="fill: rgb(141, 94, 59);"/>
    <rect class="cls-2" x="64.19" y="175.63" width="10.22" height="31.8" transform="matrix(1.000009, 0, 0, 1, 1742.528173, 349.585595)" style="fill: rgb(125, 86, 53);"/>
    <polygon class="cls-3" points="1806.719 349.586 1837.819 412.656 1827.449 409.376 1848.189 441.355 1836.619 441.355 1856.959 471.896 1847.789 471.896 1864.139 502.445 1856.159 502.445 1870.909 535.206 1806.719 535.206 1806.719 349.586" style="fill: rgb(65, 150, 92);"/>
    <polygon class="cls-4" points="1806.719 349.586 1775.619 412.656 1785.989 409.376 1765.259 441.355 1776.819 441.355 1756.489 471.896 1765.659 471.896 1749.309 502.445 1757.279 502.445 1742.529 535.206 1806.719 535.206 1806.719 349.586" style="fill: rgb(92, 175, 99);"/>
  </g>
  <rect x="467.195" y="702.201" width="755.322" height="167.78" style="fill: rgb(255, 165, 79);"/>
  <rect x="467.195" y="336.373" width="755.322" height="406.477" style="fill: rgb(255, 241, 79);"/>
  <rect x="545.531" y="426.766" width="147.569" height="147.739" style="stroke-width: 6; fill: rgb(187, 249, 255); stroke: rgb(255, 113, 113);"/>
  <rect x="996.611" y="426.764" width="147.569" height="147.739" style="stroke-width: 6; fill: rgb(187, 249, 255); stroke: rgb(255, 113, 113);"/>
  <line style="stroke-width: 6; stroke: rgb(255, 113, 113);" x1="619.313" y1="572.588" x2="619.313" y2="428.685"/>
  <line style="stroke-width: 6; stroke: rgb(255, 113, 113);" x1="619.314" y1="572.53" x2="619.314" y2="428.792" transform="matrix(0, 1, -1, 0, 1119.975102, -118.652989)"/>
  <line style="stroke-width: 6; stroke: rgb(255, 113, 113);" x1="1070.395" y1="572.586" x2="1070.395" y2="428.684"/>
  <line style="stroke-width: 6; stroke: rgb(255, 113, 113);" x1="1070.395" y1="572.528" x2="1070.395" y2="428.791" transform="matrix(0, 1, -1, 0, 1571.054505, -569.735538)"/>
  <rect x="467.195" y="333.725" width="30.196" height="536.256" style="fill: rgb(255, 255, 255);"/>
  <rect x="222.914" y="241.841" width="30.196" height="536.256" transform="matrix(0.999999, 0, 0, 1, 969.406994, 91.883894)" style="fill: rgb(255, 255, 255);"/>
  <rect x="951.933" y="333.725" width="18.381" height="536.256" style="fill: rgb(255, 255, 255);"/>
  <rect x="719.397" y="333.725" width="18.381" height="536.256" style="fill: rgb(255, 255, 255);"/>
  <polygon points="405.057 340.374 1278.83 340.374 1179.796 210.131 515.73 210.131" style="fill: rgb(255, 113, 113);"/>
  <rect x="135.844" y="112.937" width="18.402" height="250.428" transform="matrix(0, 0.999999, -1, 0, 1321.82029, 500.475729)" style="fill: rgb(255, 255, 255);"/>
  <rect x="135.844" y="111.656" width="18.402" height="247.585" transform="matrix(0, 0.999999, -1, 0, 839.212147, 500.475302)" style="fill: rgb(255, 255, 255);"/>
  <rect x="603.454" y="1003.841" width="18.381" height="226.564" style="fill: rgb(255, 255, 255);" transform="matrix(0.999997, 0, 0, 1, -8.879954, -360.425293)"/>
  <rect x="594.965" y="1020.144" width="18.381" height="226.564" style="fill: rgb(255, 255, 255);" transform="matrix(0.999997, 0, 0, 1, -61.578713, -376.727295)"/>
  <rect x="657.018" y="643.417" width="18.381" height="226.564" style="fill: rgb(255, 255, 255);"/>
  <rect x="1135.427" y="1020.142" width="18.381" height="226.564" style="fill: rgb(255, 255, 255);" transform="matrix(1.000007, 0, 0, 1, -61.58359, -376.726685)"/>
  <rect x="1074.237" y="1020.144" width="18.381" height="226.564" style="fill: rgb(255, 255, 255);" transform="matrix(0.999993, 0, 0, 1, -61.568916, -376.727295)"/>
  <rect x="1136.294" y="643.417" width="18.381" height="226.564" style="fill: rgb(255, 255, 255);"/>
  <rect x="770.548" y="397.863" width="148.614" height="345.055" style="fill: rgb(255, 113, 113);"/>
  <ellipse transform="matrix(-0.706702, 0.707517, -0.706691, -0.707519, 1802.393202, 543.162109)" cx="650.611" cy="648.897" rx="9.66" ry="9.66" style="fill: rgb(255, 255, 255);"/>
  <ellipse transform="matrix(0.634298, 0.773086, -0.772364, 0.635179, 1449.224301, 188.835029)" cx="542.693" cy="373.571" rx="23.026" ry="23.021" style="fill: rgb(213, 179, 117); stroke-width: 9.99999; stroke: rgb(104, 75, 21);"/>
  <ellipse transform="matrix(0.634305, 0.773086, -0.772376, 0.635169, 1500.243948, 191.752171)" cx="542.698" cy="373.579" rx="23.026" ry="23.021" style="fill: rgb(213, 179, 117); stroke-width: 9.99999; stroke: rgb(104, 75, 21);"/>
  <ellipse transform="matrix(0.634293, 0.773092, -0.772365, 0.635175, 1551.597185, 191.019822)" cx="542.689" cy="373.573" rx="23.026" ry="23.021" style="fill: rgb(213, 179, 117); stroke-width: 9.99999; stroke: rgb(104, 75, 21);"/>
  <ellipse transform="matrix(0.634302, 0.773084, -0.772365, 0.63518, 1476.915346, 145.05566)" cx="542.696" cy="373.57" rx="23.026" ry="23.021" style="fill: rgb(213, 179, 117); stroke-width: 9.99999; stroke: rgb(104, 75, 21);"/>
  <ellipse transform="matrix(0.634307, 0.773084, -0.772372, 0.635176, 1503.820907, 100.6205)" cx="542.695" cy="373.574" rx="23.026" ry="23.021" style="fill: rgb(213, 179, 117); stroke-width: 9.99999; stroke: rgb(104, 75, 21);"/>
  <ellipse transform="matrix(0.634298, 0.773092, -0.772372, 0.635176, 1528.276138, 144.32149)" cx="542.689" cy="373.573" rx="23.026" ry="23.021" style="fill: rgb(213, 179, 117); stroke-width: 9.99999; stroke: rgb(104, 75, 21);"/>
  <g transform="matrix(0.631358, 0, 0, 0.631358, 104.545631, 659.816223)">
    <polyline points="158.537 139.53 140.429 109.557 179.143 70.843 265.938 52.11 350.861 68.969 379.584 95.196 389.575 120.172 368.344 142.027"/>
    <g transform="matrix(0.995915, -0.090303, 0.090303, 0.995915, -272.162445, -27.909397)">
      <path d="M 460.489 433.61 L 375.255 433.61 L 375.255 396.333 C 375.255 391.16 371.062 386.967 365.889 386.967 L 330.296 386.967 C 325.123 386.967 320.93 391.16 320.93 396.333 L 320.93 460.461 L 320.932 460.461 C 321.099 474.974 332.915 486.687 347.468 486.687 L 460.489 486.687 C 475.146 486.687 487.027 474.806 487.027 460.149 L 487.027 460.148 C 487.027 445.491 475.146 433.61 460.489 433.61 Z" style="fill: rgb(255, 236, 218);" transform="matrix(0.983895, -0.178746, 0.178746, 0.983895, -71.575106, 79.244527)"/>
      <path d="M 468.464 475.75 L 357.263 495.952 C 342.945 498.554 329.225 489.142 326.467 474.892 L 326.465 474.892 L 315.002 411.797 C 314.078 406.707 317.454 401.832 322.543 400.908 L 326.805 400.134 L 337.08 456.689 L 337.082 456.689 C 339.84 470.938 353.56 480.349 367.878 477.749 L 479.079 457.547 C 483.197 456.798 486.92 455.138 490.076 452.81 C 488.726 464.068 480.204 473.617 468.464 475.75 Z" style="fill: rgb(232, 207, 184);"/>
    </g>
    <g transform="matrix(-0.939039, -0.074766, -0.07937, 0.996847, 768.209473, -32.948406)">
      <path d="M 462.729 432.057 L 377.323 432.057 L 378.153 394.855 C 378.268 389.693 374.16 385.508 368.977 385.508 L 333.311 385.508 C 328.128 385.508 323.833 389.693 323.718 394.855 L 322.289 458.853 L 322.291 458.853 C 322.136 473.337 333.715 485.026 348.297 485.026 L 461.547 485.026 C 476.234 485.026 488.403 473.169 488.73 458.542 L 488.73 458.541 C 489.056 443.914 477.416 432.057 462.729 432.057 Z" style="fill: rgb(255, 236, 218);" transform="matrix(0.981907, -0.178385, 0.201024, 0.981906, -80.162178, 80.212978)"/>
    </g>
    <ellipse transform="matrix(0, -1, 1, 0, -3.704102, 898.99762)" cx="654.47" cy="263.914" rx="167.851" ry="140.225" style="fill: rgb(255, 236, 218);"/>
    <g transform="matrix(0.871179, 0, 0, 0.871179, 30.119055, 13.540866)">
      <ellipse transform="matrix(0, -1, 1, 0, 275.216289, 277.477051)" cx="111.097" cy="45.552" rx="28.493" ry="24.202" style="fill: rgb(255, 255, 255);"/>
      <ellipse transform="matrix(0, -1, 1, 0, 159.968717, 275.048065)" cx="111.097" cy="45.552" rx="28.493" ry="24.202" style="fill: rgb(255, 255, 255);"/>
      <path d="M 518 344 A 20.518 20.518 0 1 1 503 337.482 L 503 358 Z" transform="matrix(0.485798, 0, 0, 0.485798, -33.280106, -6.356604)" style="fill: rgb(22, 22, 22);" bx:shape="pie 503 358 0 20.518 46.975 360 1@74b94f2d"/>
      <path d="M 518 344 A 20.518 20.518 0 1 1 503 337.482 L 503 358 Z" transform="matrix(0.485798, 0, 0, 0.485798, 78.236206, -3.134775)" style="fill: rgb(22, 22, 22);" bx:shape="pie 503 358 0 20.518 46.975 360 1@74b94f2d"/>
      <path style="stroke: rgb(0, 0, 0); fill: none; stroke-width: 4;" d="M 171.241 131.751 C 189.013 122.005 226.653 107.371 232.452 124.95"/>
      <path style="stroke: rgb(0, 0, 0); fill: none; stroke-width: 4;" d="M 297.548 116.469 C 315.32 126.215 352.961 140.849 358.76 123.27" transform="matrix(-1, 0, 0, -1, 656.307978, 247.956386)"/>
    </g>
    <g transform="matrix(0.822978, 0, 0, 0.822978, 45.616146, 14.894916)">
      <ellipse transform="matrix(0, 1, -1, -0.000001, 538.019329, -150.036811)" cx="377.49" cy="277.876" rx="41.058" ry="41.058" style="fill: rgb(255, 215, 174);"/>
      <path d="M 260.142 186.395 C 282.818 186.395 301.201 204.777 301.201 227.453 C 301.201 234.767 299.288 241.635 295.936 247.582 C 288.754 253.746 279.418 257.47 269.211 257.47 C 246.535 257.47 228.153 239.088 228.153 216.412 C 228.153 209.098 230.066 202.23 233.418 196.282 C 240.6 190.119 249.936 186.395 260.142 186.395 Z" style="fill: rgb(255, 255, 255);"/>
    </g>
    <path style="fill: none; stroke: rgb(255, 70, 70); stroke-width: 8;" d="M 189.673 242.109 C 213.797 250.807 230.207 256.302 255.279 247.482 C 275.139 257.208 316.593 241.325 330.154 237.708 C 318.123 301.71 200.898 294.09 189.673 242.109 Z"/>
    <path d="M 129.646 305.875 L 390.774 305.875 C 387.21 316.736 382.727 327.044 377.44 336.663 L 142.98 336.663 C 137.693 327.044 133.21 316.736 129.646 305.875 Z" style="fill: rgb(255, 255, 255);"/>
    <path d="M 172.216 374.996 C 173.075 370.418 177.481 367.403 182.059 368.261 C 186.637 369.12 189.652 373.526 188.794 378.104 C 188.194 381.304 185.86 383.74 182.947 384.624 C 179.231 381.681 175.639 378.533 172.182 375.191 C 172.192 375.126 172.204 375.061 172.216 374.996 Z M 199.862 387.114 C 204.439 387.973 207.454 392.379 206.596 396.957 C 206.441 397.786 206.169 398.563 205.801 399.276 C 200.807 396.757 195.961 393.902 191.282 390.735 C 193.099 388.002 196.433 386.471 199.862 387.114 Z M 232.812 401.801 C 233.67 397.224 238.077 394.209 242.655 395.067 C 247.233 395.925 250.248 400.332 249.389 404.91 C 248.822 407.935 246.704 410.278 244.012 411.271 C 241.21 410.885 238.433 410.401 235.683 409.82 C 233.427 407.926 232.231 404.903 232.812 401.801 Z M 285.073 402.559 C 285.931 397.981 290.338 394.966 294.916 395.824 C 299.233 396.633 302.16 400.599 301.759 404.888 C 296.872 406.701 291.87 408.202 286.77 409.372 C 285.295 407.522 284.603 405.066 285.073 402.559 Z M 329.002 380.973 C 329.861 376.395 334.267 373.38 338.845 374.238 C 341.439 374.724 343.531 376.35 344.701 378.5 C 340.564 382.244 336.249 385.719 331.773 388.905 C 329.582 387.007 328.429 384.028 329.002 380.973 Z" style="fill: rgb(255, 70, 70);"/>
    <ellipse transform="matrix(-0.184293, 0.982869, -0.982874, -0.184286, 385.218575, 289.504196)" cx="117.337" cy="160.075" rx="8.433" ry="8.433" style="fill: rgb(255, 70, 70);"/>
    <ellipse transform="matrix(-0.184293, 0.982869, -0.982874, -0.184286, 410.212869, 297.456893)" cx="117.337" cy="160.075" rx="8.433" ry="8.433" style="fill: rgb(255, 70, 70);"/>
    <ellipse transform="matrix(-0.184293, 0.98287, -0.98287, -0.184285, 433.31303, 283.444772)" cx="117.337" cy="160.075" rx="8.433" ry="8.433" style="fill: rgb(255, 70, 70);"/>
    <ellipse transform="matrix(-0.18429, 0.98287, -0.982876, -0.184286, 445.431619, 309.19647)" cx="117.337" cy="160.075" rx="8.433" ry="8.433" style="fill: rgb(255, 70, 70);"/>
    <ellipse transform="matrix(-0.18429, 0.98287, -0.982876, -0.184286, 463.230569, 284.959623)" cx="117.337" cy="160.075" rx="8.433" ry="8.433" style="fill: rgb(255, 70, 70);"/>
    <ellipse transform="matrix(-0.184289, 0.982872, -0.982876, -0.184285, 487.46773, 293.669655)" cx="117.337" cy="160.076" rx="8.433" ry="8.433" style="fill: rgb(255, 70, 70);"/>
    <path d="M 378.559 334.595 C 372.574 345.839 365.503 356.172 357.521 365.383 L 162.899 365.383 C 154.917 356.172 147.845 345.839 141.861 334.595 Z" style="fill: rgb(41, 236, 83);"/>
    <ellipse transform="matrix(-0.592903, 0.805274, -0.805273, -0.592903, -360.099072, 443.817276)" cx="-412.292" cy="-280.92" rx="46.198" ry="32.038" style="fill: rgb(255, 236, 218);"/>
    <ellipse transform="matrix(0.640847, 0.767669, -0.767669, 0.640846, 455.906995, 767.965422)" cx="-412.293" cy="-280.92" rx="46.198" ry="32.038" style="fill: rgb(255, 236, 218);"/>
  </g>
</svg>