<?xml version="1.0" encoding="utf-8"?>
<svg viewBox="265.74700927734375 57.21699905395508 132.54400634765625 119.08599853515625" xmlns="http://www.w3.org/2000/svg">
  <ellipse transform="matrix(0.6343020200729372, 0.7730838656425477, -0.7723638415336609, 0.6351799964904786, 268.030767325193, -265.1091118877253)" cx="326.234" cy="224.567" rx="13.842" ry="13.839" style="fill: rgb(213, 179, 117); stroke-width: 9.99999; stroke: rgb(104, 75, 21);"/>
  <ellipse transform="matrix(0.6343038678169252, 0.7730869650840759, -0.7723727822303773, 0.6351680159568789, 298.70245921972423, -263.35569391897536)" cx="326.235" cy="224.572" rx="13.842" ry="13.839" style="fill: rgb(213, 179, 117); stroke-width: 9.99999; stroke: rgb(104, 75, 21);"/>
  <ellipse transform="matrix(0.634292960166931, 0.7730929851531981, -0.7723688483238219, 0.6351729631423949, 329.5736750400366, -263.79819880178775)" cx="326.232" cy="224.57" rx="13.842" ry="13.839" style="fill: rgb(213, 179, 117); stroke-width: 9.99999; stroke: rgb(104, 75, 21);"/>
  <ellipse transform="matrix(0.6343020200729371, 0.7730869650840758, -0.772363841533661, 0.6351799964904784, 284.67914379003673, -291.4270325725397)" cx="326.234" cy="224.567" rx="13.842" ry="13.839" style="fill: rgb(213, 179, 117); stroke-width: 9.99999; stroke: rgb(104, 75, 21);"/>
  <ellipse transform="matrix(0.6343029737472533, 0.7730849981307982, -0.7723669409751891, 0.6351769566535949, 300.8536433017555, -318.1381455486139)" cx="326.233" cy="224.569" rx="13.842" ry="13.839" style="fill: rgb(213, 179, 117); stroke-width: 9.99999; stroke: rgb(104, 75, 21);"/>
  <ellipse transform="matrix(0.6342929601669309, 0.7730910181999205, -0.772368848323822, 0.6351749300956725, 315.5541743076148, -291.8699036662897)" cx="326.232" cy="224.57" rx="13.842" ry="13.839" style="fill: rgb(213, 179, 117); stroke-width: 9.99999; stroke: rgb(104, 75, 21);"/>
  <ellipse transform="matrix(0.634304, 0.773086, -0.772365, 0.635181, 251.731711, -240.924486)" cx="326.234" cy="224.567" rx="13.842" ry="13.839" style="fill: rgb(213, 179, 117); stroke-width: 9.99999; stroke: rgb(104, 75, 21);"/>
  <ellipse transform="matrix(0.634302, 0.773085, -0.772374, 0.635168, 282.403989, -239.170508)" cx="326.236" cy="224.572" rx="13.842" ry="13.839" style="fill: rgb(213, 179, 117); stroke-width: 9.99999; stroke: rgb(104, 75, 21);"/>
  <ellipse transform="matrix(0.634296, 0.773094, -0.77237, 0.635174, 313.274221, -239.613708)" cx="326.232" cy="224.57" rx="13.842" ry="13.839" style="fill: rgb(213, 179, 117); stroke-width: 9.99999; stroke: rgb(104, 75, 21);"/>
  <ellipse transform="matrix(0.634296, 0.773094, -0.77237, 0.635174, 345.345723, -238.036422)" cx="326.232" cy="224.57" rx="13.842" ry="13.839" style="fill: rgb(213, 179, 117); stroke-width: 9.99999; stroke: rgb(104, 75, 21);"/>
</svg>