<?xml version="1.0" encoding="utf-8"?>
<svg viewBox="232.62399291992188 254.3780059814453 100.4729995727539 93.76699829101562" xmlns="http://www.w3.org/2000/svg">
  <ellipse transform="matrix(0.6343020200729372, 0.7730838656425477, -0.7723638415336609, 0.6351799964904786, 218.60910462757323, -67.9482234663697)" cx="326.234" cy="224.567" rx="13.842" ry="13.839" style="fill: rgb(213, 179, 117); stroke-width: 9.99999; stroke: rgb(104, 75, 21);"/>
  <ellipse transform="matrix(0.6343038678169252, 0.7730869650840759, -0.7723727822303773, 0.6351680159568789, 249.28079652210442, -66.19480549761975)" cx="326.235" cy="224.572" rx="13.842" ry="13.839" style="fill: rgb(213, 179, 117); stroke-width: 9.99999; stroke: rgb(104, 75, 21);"/>
  <ellipse transform="matrix(0.634292960166931, 0.7730929851531981, -0.7723688483238219, 0.6351729631423949, 280.1520123424168, -66.63731038043218)" cx="326.232" cy="224.57" rx="13.842" ry="13.839" style="fill: rgb(213, 179, 117); stroke-width: 9.99999; stroke: rgb(104, 75, 21);"/>
  <ellipse transform="matrix(0.6343020200729371, 0.7730869650840758, -0.772363841533661, 0.6351799964904784, 235.25748109241692, -94.26614415118414)" cx="326.234" cy="224.567" rx="13.842" ry="13.839" style="fill: rgb(213, 179, 117); stroke-width: 9.99999; stroke: rgb(104, 75, 21);"/>
  <ellipse transform="matrix(0.6343029737472533, 0.7730849981307982, -0.7723669409751891, 0.6351769566535949, 251.43198060413565, -120.97725712725835)" cx="326.233" cy="224.569" rx="13.842" ry="13.839" style="fill: rgb(213, 179, 117); stroke-width: 9.99999; stroke: rgb(104, 75, 21);"/>
  <ellipse transform="matrix(0.6342929601669309, 0.7730910181999205, -0.772368848323822, 0.6351749300956725, 266.13251160999494, -94.70901524493411)" cx="326.232" cy="224.57" rx="13.842" ry="13.839" style="fill: rgb(213, 179, 117); stroke-width: 9.99999; stroke: rgb(104, 75, 21);"/>
</svg>