<?xml version="1.0" encoding="utf-8"?>
<svg viewBox="307.74798583984375 34.47999954223633 162.88400268554688 144.84800720214844" xmlns="http://www.w3.org/2000/svg">
  <ellipse transform="matrix(0.634304, 0.773086, -0.772365, 0.635181, 310.030729, -262.085323)" cx="326.234" cy="224.567" rx="13.842" ry="13.839" style="fill: rgb(213, 179, 117); stroke-width: 9.99999; stroke: rgb(104, 75, 21);"/>
  <ellipse transform="matrix(0.634304, 0.773085, -0.772374, 0.635169, 340.702288, -260.331593)" cx="326.236" cy="224.572" rx="13.842" ry="13.839" style="fill: rgb(213, 179, 117); stroke-width: 9.99999; stroke: rgb(104, 75, 21);"/>
  <ellipse transform="matrix(0.634293, 0.773094, -0.77237, 0.635174, 371.573958, -260.774668)" cx="326.232" cy="224.57" rx="13.842" ry="13.839" style="fill: rgb(213, 179, 117); stroke-width: 9.99999; stroke: rgb(104, 75, 21);"/>
  <ellipse transform="matrix(0.634302, 0.773085, -0.772365, 0.635181, 326.679515, -288.40279)" cx="326.234" cy="224.567" rx="13.842" ry="13.839" style="fill: rgb(213, 179, 117); stroke-width: 9.99999; stroke: rgb(104, 75, 21);"/>
  <ellipse transform="matrix(0.634304, 0.773087, -0.772367, 0.635177, 342.853447, -315.114768)" cx="326.233" cy="224.569" rx="13.842" ry="13.839" style="fill: rgb(213, 179, 117); stroke-width: 9.99999; stroke: rgb(104, 75, 21);"/>
  <ellipse transform="matrix(0.634292, 0.773091, -0.772369, 0.635176, 357.555263, -288.845599)" cx="326.232" cy="224.57" rx="13.842" ry="13.839" style="fill: rgb(213, 179, 117); stroke-width: 9.99999; stroke: rgb(104, 75, 21);"/>
  <ellipse transform="matrix(0.634304, 0.773084, -0.772366, 0.635181, 293.73215, -237.900265)" cx="326.235" cy="224.567" rx="13.842" ry="13.839" style="fill: rgb(213, 179, 117); stroke-width: 9.99999; stroke: rgb(104, 75, 21);"/>
  <ellipse transform="matrix(0.634303, 0.773085, -0.772374, 0.635168, 324.403981, -236.146222)" cx="326.236" cy="224.572" rx="13.842" ry="13.839" style="fill: rgb(213, 179, 117); stroke-width: 9.99999; stroke: rgb(104, 75, 21);"/>
  <ellipse transform="matrix(0.634295, 0.773092, -0.772372, 0.635175, 355.274685, -236.589897)" cx="326.233" cy="224.57" rx="13.842" ry="13.839" style="fill: rgb(213, 179, 117); stroke-width: 9.99999; stroke: rgb(104, 75, 21);"/>
  <ellipse transform="matrix(0.634295, 0.773092, -0.772372, 0.635175, 387.346188, -235.012626)" cx="326.233" cy="224.57" rx="13.842" ry="13.839" style="fill: rgb(213, 179, 117); stroke-width: 9.99999; stroke: rgb(104, 75, 21);"/>
  <ellipse transform="matrix(0.63429, 0.773093, -0.772369, 0.635176, 386.270378, -286.537234)" cx="326.233" cy="224.57" rx="13.842" ry="13.839" style="fill: rgb(213, 179, 117); stroke-width: 9.99999; stroke: rgb(104, 75, 21);"/>
  <ellipse transform="matrix(0.634301, 0.773085, -0.772367, 0.635177, 357.550422, -340.876303)" cx="326.234" cy="224.569" rx="13.842" ry="13.839" style="fill: rgb(213, 179, 117); stroke-width: 9.99999; stroke: rgb(104, 75, 21);"/>
  <ellipse transform="matrix(0.63429, 0.773093, -0.772369, 0.635176, 372.251943, -314.607821)" cx="326.232" cy="224.57" rx="13.842" ry="13.839" style="fill: rgb(213, 179, 117); stroke-width: 9.99999; stroke: rgb(104, 75, 21);"/>
  <ellipse transform="matrix(0.634292, 0.773093, -0.772371, 0.635174, 402.042728, -260.774983)" cx="326.233" cy="224.57" rx="13.842" ry="13.839" style="fill: rgb(213, 179, 117); stroke-width: 9.99999; stroke: rgb(104, 75, 21);"/>
  <ellipse transform="matrix(0.634294, 0.773093, -0.772374, 0.635171, 417.686939, -235.013044)" cx="326.233" cy="224.57" rx="13.842" ry="13.839" style="fill: rgb(213, 179, 117); stroke-width: 9.99999; stroke: rgb(104, 75, 21);"/>
</svg>