<?xml version="1.0" encoding="utf-8"?>
<svg viewBox="0 0 500 500" xmlns="http://www.w3.org/2000/svg">
  <path d="M 339.977 79.508 C 308.367 97.828 274.917 121.755 243.98 152.705 C 224.202 172.494 208.288 191.721 195.465 209.739 L 117.076 224.224 L 25.01 316.359 L 107.112 318.915 L 164.931 261.097 C 144.521 303.385 142.721 331.421 142.721 331.421 L 168.586 357.258 C 168.586 357.258 197.515 354.51 240.104 333.895 L 181.049 392.882 L 183.633 475.011 L 275.742 382.932 L 290.281 304.155 C 308.477 291.402 327.719 275.569 347.289 256.012 C 378.239 225.049 402.151 191.611 420.486 160.002 C 400.284 155.893 381.757 147.482 367.135 132.901 C 352.511 118.236 344.046 99.71 339.977 79.508 Z M 370.487 63.153 C 372.685 82.93 379.257 98.871 390.167 109.729 C 401.052 120.71 416.966 127.265 436.813 129.437 C 465.81 70.836 474.99 24.988 474.99 24.988 C 474.99 24.988 429.143 34.154 370.487 63.153 Z" style="fill: rgb(255, 255, 255);"/>
</svg>