<?xml version="1.0" encoding="utf-8"?>
<svg viewBox="0 0 1680 976" xmlns="http://www.w3.org/2000/svg">
  <g transform="matrix(1.640987, 0, 0, 1.642869, -1688.696899, -168.132324)">
    <rect x="1545.167" y="995.977" width="121.726" height="121.726" transform="matrix(0.933973, 0.357342, -0.357343, 0.933973, 287.52646, -1285.707606)" style="fill: rgb(255, 113, 113);"/>
    <rect x="1545.166" y="995.977" width="121.726" height="121.726" transform="matrix(0.707107, -0.707107, 0.707107, 0.707107, -152.81766, 649.097887)" style="fill: rgb(255, 113, 113);"/>
    <rect x="1545.171" y="995.979" width="121.726" height="121.726" transform="matrix(0.984041, 0.177937, -0.177939, 0.98404, 136.33902, -869.350452)" style="fill: rgb(255, 113, 113);"/>
    <rect x="1545.171" y="995.978" width="121.726" height="121.726" transform="matrix(0.984042, 0.177938, -0.177939, 0.984042, 346.458695, -885.295549)" style="fill: rgb(255, 113, 113);"/>
    <rect x="1545.167" y="995.976" width="121.726" height="121.726" transform="matrix(0.707107, -0.707107, 0.707107, 0.707107, -580.307048, 883.856364)" style="fill: rgb(255, 113, 113);"/>
    <rect x="1090.905" y="703.169" width="85.94" height="85.94" transform="matrix(0.992698, 0.120623, -0.120624, 0.992699, 508.531953, -321.145914)" style="fill: rgb(255, 165, 79);"/>
    <rect x="1090.912" y="703.169" width="85.94" height="85.94" transform="matrix(0.992699, 0.120623, -0.120623, 0.992698, 876.922919, -638.22342)" style="fill: rgb(255, 165, 79);"/>
    <rect x="1090.904" y="703.169" width="85.94" height="85.94" transform="matrix(0.976511, -0.215464, 0.215464, 0.976512, 331.263784, -248.600319)" style="fill: rgb(255, 165, 79);"/>
    <rect x="1090.903" y="703.169" width="85.94" height="85.94" transform="matrix(0.976512, -0.215464, 0.215464, 0.976512, -26.858518, -243.889394)" style="fill: rgb(255, 165, 79);"/>
    <rect x="1090.905" y="703.169" width="85.94" height="85.94" transform="matrix(0.976511, -0.215464, 0.215464, 0.976512, 541.099656, 35.850723)" style="fill: rgb(255, 165, 79);"/>
    <rect x="874.209" y="556.043" width="68.869" height="67.958" transform="matrix(0.997284, 0.073642, -0.073641, 0.997285, 400.759901, -325.622411)" style="fill: rgb(255, 241, 79);"/>
    <rect x="874.208" y="556.041" width="68.869" height="67.958" transform="matrix(0.997286, 0.07364, -0.07364, 0.997285, 763.951498, -350.733004)" style="fill: rgb(255, 241, 79);"/>
    <rect x="874.209" y="556.045" width="68.869" height="67.958" transform="matrix(0.997285, 0.073642, -0.07364, 0.997285, 490.617278, -211.983154)" style="fill: rgb(255, 241, 79);"/>
    <rect x="874.213" y="556.044" width="68.869" height="67.958" transform="matrix(0.913706, -0.406375, 0.406379, 0.913704, 505.05049, 345.953813)" style="fill: rgb(255, 241, 79);"/>
    <rect x="874.21" y="556.045" width="68.869" height="67.958" transform="matrix(0.968957, 0.24723, -0.247223, 0.968958, 1068.73648, -395.024346)" style="fill: rgb(255, 241, 79);"/>
    <rect x="874.21" y="556.046" width="68.869" height="67.958" transform="matrix(0.610596, -0.791943, 0.791945, 0.61059, 694.445448, 571.186749)" style="fill: rgb(255, 241, 79);"/>
    <rect x="1230.687" y="782.781" width="96.952" height="95.67" transform="matrix(0.89309, 0.44988, -0.44988, 0.893089, 432.372065, -1014.297905)" style="fill: rgb(151, 219, 153);"/>
    <rect x="1230.69" y="782.781" width="96.952" height="95.67" transform="matrix(0.893089, 0.44988, -0.449879, 0.893089, 675.905505, -917.405983)" style="fill: rgb(151, 219, 153);"/>
    <rect x="1230.686" y="782.781" width="96.952" height="95.67" transform="matrix(0.998164, -0.060558, 0.060558, 0.998165, 450.109632, -418.408908)" style="fill: rgb(151, 219, 153);"/>
    <rect x="1230.69" y="782.782" width="96.952" height="95.67" transform="matrix(0.957108, -0.289727, 0.289724, 0.95711, 201.540824, 160.740752)" style="fill: rgb(151, 219, 153);"/>
    <rect x="1230.694" y="782.782" width="96.952" height="95.67" transform="matrix(0.957108, -0.289727, 0.289724, 0.95711, 61.861365, -207.514464)" style="fill: rgb(151, 219, 153);"/>
    <rect x="874.208" y="556.041" width="68.869" height="67.958" transform="matrix(0.997286, 0.07364, -0.07364, 0.997285, 378.420008, -361.300326)" style="fill: rgb(187, 249, 255);"/>
    <rect x="874.209" y="556.042" width="68.869" height="67.958" transform="matrix(0.997285, 0.07364, -0.073641, 0.997285, 587.708109, -207.632568)" style="fill: rgb(187, 249, 255);"/>
    <rect x="874.208" y="556.043" width="68.869" height="67.958" transform="matrix(0.971459, -0.237206, 0.237205, 0.971459, 314.911025, 195.807235)" style="fill: rgb(187, 249, 255);"/>
    <rect x="874.21" y="556.042" width="68.869" height="67.958" transform="matrix(0.798337, -0.602211, 0.602211, 0.798338, 801.931149, 329.825673)" style="fill: rgb(187, 249, 255);"/>
    <rect x="874.211" y="556.043" width="68.869" height="67.958" transform="matrix(0.446493, -0.894787, 0.894788, 0.446491, 770.945281, 1136.903915)" style="fill: rgb(187, 249, 255);"/>
    <rect x="874.212" y="556.043" width="68.869" height="67.958" transform="matrix(0.97146, -0.237205, 0.237205, 0.971459, 783.537188, 1.65708)" style="fill: rgb(187, 249, 255);"/>
  </g>
</svg>