<?xml version="1.0" encoding="utf-8"?>
<svg viewBox="0 0 1680 976" xmlns="http://www.w3.org/2000/svg" xmlns:bx="https://boxy-svg.com">
  <defs>
    <linearGradient id="gradient-12" gradientUnits="userSpaceOnUse" x1="204.348" y1="144.228" x2="204.348" y2="194.069" gradientTransform="matrix(0.99963, -0.027017, 0.00625, 0.231249, -1.138389, 154.711521)">
      <stop offset="0" style="stop-color: rgb(255, 102, 0);"/>
      <stop offset="1" style="stop-color: rgb(255, 0, 0);"/>
    </linearGradient>
    <linearGradient id="gradient-13" gradientUnits="userSpaceOnUse" x1="204.348" y1="144.228" x2="204.348" y2="194.069" gradientTransform="matrix(0.99962, -0.027017, 0.00625, 0.231249, -1.13576, 154.711582)">
      <stop offset="0" style="stop-color: rgb(255, 102, 0);"/>
      <stop offset="1" style="stop-color: rgb(255, 0, 0);"/>
    </linearGradient>
  </defs>
  <title>Ski In-Game</title>
  <rect x="-10.151" y="-6.539" width="1703.316" height="994.14" style="fill: rgb(255, 255, 255);"/>
  <g transform="matrix(1.296339, 0, 0, 1.297827, -839.848328, -386.835907)">
    <rect class="cls-1" x="53.97" y="175.63" width="10.22" height="31.8" transform="matrix(0.999997, 0, 0, 1, 1742.528939, 349.585595)" style="fill: rgb(141, 94, 59);"/>
    <rect class="cls-2" x="64.19" y="175.63" width="10.22" height="31.8" transform="matrix(1.000009, 0, 0, 1, 1742.528173, 349.585595)" style="fill: rgb(125, 86, 53);"/>
    <polygon class="cls-3" points="1806.719 349.586 1837.819 412.656 1827.449 409.376 1848.189 441.355 1836.619 441.355 1856.959 471.896 1847.789 471.896 1864.139 502.445 1856.159 502.445 1870.909 535.206 1806.719 535.206 1806.719 349.586" style="fill: rgb(65, 150, 92);"/>
    <polygon class="cls-4" points="1806.719 349.586 1775.619 412.656 1785.989 409.376 1765.259 441.355 1776.819 441.355 1756.489 471.896 1765.659 471.896 1749.309 502.445 1757.279 502.445 1742.529 535.206 1806.719 535.206 1806.719 349.586" style="fill: rgb(92, 175, 99);"/>
  </g>
  <g transform="matrix(1.296339, 0, 0, 1.297827, -944.064575, 17.101946)">
    <rect class="cls-1" x="53.97" y="175.63" width="10.22" height="31.8" transform="matrix(0.999997, 0, 0, 1, 1742.528939, 349.585595)" style="fill: rgb(141, 94, 59);"/>
    <rect class="cls-2" x="64.19" y="175.63" width="10.22" height="31.8" transform="matrix(1.000009, 0, 0, 1, 1742.528173, 349.585595)" style="fill: rgb(125, 86, 53);"/>
    <polygon class="cls-3" points="1806.719 349.586 1837.819 412.656 1827.449 409.376 1848.189 441.355 1836.619 441.355 1856.959 471.896 1847.789 471.896 1864.139 502.445 1856.159 502.445 1870.909 535.206 1806.719 535.206 1806.719 349.586" style="fill: rgb(65, 150, 92);"/>
    <polygon class="cls-4" points="1806.719 349.586 1775.619 412.656 1785.989 409.376 1765.259 441.355 1776.819 441.355 1756.489 471.896 1765.659 471.896 1749.309 502.445 1757.279 502.445 1742.529 535.206 1806.719 535.206 1806.719 349.586" style="fill: rgb(92, 175, 99);"/>
  </g>
  <polygon points="1495.897 453.056 1450.649 511.569 1527.951 511.569" style="fill: rgb(55, 55, 55);"/>
  <polygon points="1531.431 465.98 1486.182 524.493 1563.482 524.493" style="fill: rgb(95, 95, 95);"/>
  <g transform="matrix(1.296339, 0, 0, 1.297827, -775.091736, -26.378004)">
    <rect class="cls-1" x="53.97" y="175.63" width="10.22" height="31.8" transform="matrix(0.999997, 0, 0, 1, 1742.528939, 349.585595)" style="fill: rgb(141, 94, 59);"/>
    <rect class="cls-2" x="64.19" y="175.63" width="10.22" height="31.8" transform="matrix(1.000009, 0, 0, 1, 1742.528173, 349.585595)" style="fill: rgb(125, 86, 53);"/>
    <polygon class="cls-3" points="1806.719 349.586 1837.819 412.656 1827.449 409.376 1848.189 441.355 1836.619 441.355 1856.959 471.896 1847.789 471.896 1864.139 502.445 1856.159 502.445 1870.909 535.206 1806.719 535.206 1806.719 349.586" style="fill: rgb(65, 150, 92);"/>
    <polygon class="cls-4" points="1806.719 349.586 1775.619 412.656 1785.989 409.376 1765.259 441.355 1776.819 441.355 1756.489 471.896 1765.659 471.896 1749.309 502.445 1757.279 502.445 1742.529 535.206 1806.719 535.206 1806.719 349.586" style="fill: rgb(92, 175, 99);"/>
  </g>
  <g transform="matrix(1.296339, 0, 0, 1.297827, -1081.757202, 113.994202)">
    <rect class="cls-1" x="53.97" y="175.63" width="10.22" height="31.8" transform="matrix(0.999997, 0, 0, 1, 1742.528939, 349.585595)" style="fill: rgb(141, 94, 59);"/>
    <rect class="cls-2" x="64.19" y="175.63" width="10.22" height="31.8" transform="matrix(1.000009, 0, 0, 1, 1742.528173, 349.585595)" style="fill: rgb(125, 86, 53);"/>
    <polygon class="cls-3" points="1806.719 349.586 1837.819 412.656 1827.449 409.376 1848.189 441.355 1836.619 441.355 1856.959 471.896 1847.789 471.896 1864.139 502.445 1856.159 502.445 1870.909 535.206 1806.719 535.206 1806.719 349.586" style="fill: rgb(65, 150, 92);"/>
    <polygon class="cls-4" points="1806.719 349.586 1775.619 412.656 1785.989 409.376 1765.259 441.355 1776.819 441.355 1756.489 471.896 1765.659 471.896 1749.309 502.445 1757.279 502.445 1742.529 535.206 1806.719 535.206 1806.719 349.586" style="fill: rgb(92, 175, 99);"/>
  </g>
  <g transform="matrix(1.296339, 0, 0, 1.297827, -791.857422, 156.119537)">
    <rect class="cls-1" x="53.97" y="175.63" width="10.22" height="31.8" transform="matrix(0.999997, 0, 0, 1, 1742.528939, 349.585595)" style="fill: rgb(141, 94, 59);"/>
    <rect class="cls-2" x="64.19" y="175.63" width="10.22" height="31.8" transform="matrix(1.000009, 0, 0, 1, 1742.528173, 349.585595)" style="fill: rgb(125, 86, 53);"/>
    <polygon class="cls-3" points="1806.719 349.586 1837.819 412.656 1827.449 409.376 1848.189 441.355 1836.619 441.355 1856.959 471.896 1847.789 471.896 1864.139 502.445 1856.159 502.445 1870.909 535.206 1806.719 535.206 1806.719 349.586" style="fill: rgb(65, 150, 92);"/>
    <polygon class="cls-4" points="1806.719 349.586 1775.619 412.656 1785.989 409.376 1765.259 441.355 1776.819 441.355 1756.489 471.896 1765.659 471.896 1749.309 502.445 1757.279 502.445 1742.529 535.206 1806.719 535.206 1806.719 349.586" style="fill: rgb(92, 175, 99);"/>
  </g>
  <g transform="matrix(1.296339, 0, 0, 1.297827, -891.898193, 202.460251)">
    <rect class="cls-1" x="53.97" y="175.63" width="10.22" height="31.8" transform="matrix(0.999997, 0, 0, 1, 1742.528939, 349.585595)" style="fill: rgb(141, 94, 59);"/>
    <rect class="cls-2" x="64.19" y="175.63" width="10.22" height="31.8" transform="matrix(1.000009, 0, 0, 1, 1742.528173, 349.585595)" style="fill: rgb(125, 86, 53);"/>
    <polygon class="cls-3" points="1806.719 349.586 1837.819 412.656 1827.449 409.376 1848.189 441.355 1836.619 441.355 1856.959 471.896 1847.789 471.896 1864.139 502.445 1856.159 502.445 1870.909 535.206 1806.719 535.206 1806.719 349.586" style="fill: rgb(65, 150, 92);"/>
    <polygon class="cls-4" points="1806.719 349.586 1775.619 412.656 1785.989 409.376 1765.259 441.355 1776.819 441.355 1756.489 471.896 1765.659 471.896 1749.309 502.445 1757.279 502.445 1742.529 535.206 1806.719 535.206 1806.719 349.586" style="fill: rgb(92, 175, 99);"/>
  </g>
  <polygon points="1390.234 394.183 1344.985 452.698 1422.288 452.698" style="fill: rgb(61, 61, 61);"/>
  <polygon points="1402.206 404.635 1356.96 463.15 1434.26 463.15" style="fill: rgb(95, 95, 95);"/>
  <g transform="matrix(1.290811, -1.149704, 1.148538, 1.292418, -1220.644897, 1138.912598)">
    <g transform="matrix(1.902201, 0.612463, -0.612463, 1.902201, -1122.781006, -1142.822144)">
      <title>Lil Ted Ski</title>
      <rect x="199.675" y="144.228" width="9.345" height="49.841" transform="matrix(0.999993, 0, 0, 1, 1198.611228, 289.746796)" rx="4.673" ry="4.673" style="fill: url(#gradient-12);"/>
      <rect x="199.676" y="144.228" width="9.345" height="49.841" transform="matrix(1.000003, 0, 0, 1, 1228.824162, 289.746796)" rx="4.673" ry="4.673" style="fill: url(#gradient-13);"/>
      <line style="stroke: rgb(0, 0, 0);" x1="1393.281" y1="434.249" x2="1380.233" y2="404.852"/>
      <line style="stroke: rgb(0, 0, 0);" x1="1444.057" y1="435.192" x2="1454.59" y2="406.267"/>
      <g transform="matrix(0.092049, 0, 0, 0.092049, 1140.955322, 379.314117)">
        <path d="M 3209.062 432.399 C 3208.802 432.092 3208.5 431.827 3208.238 431.52 L 2824.805 431.52 C 2824.543 431.827 2824.24 432.092 2823.981 432.399 C 2808.477 440.553 2690.438 505.343 2707.23 579.578 C 2715.333 615.397 2747.586 622.912 2766.741 624.143 C 2781.501 749.086 2887.61 846.052 3016.521 846.052 C 3145.431 846.052 3251.541 749.086 3266.3 624.143 C 3285.457 622.912 3317.71 615.397 3325.811 579.578 C 3342.604 505.343 3224.564 440.553 3209.062 432.399 Z" style="fill: rgb(200, 167, 146);"/>
        <g transform="matrix(1.677216, 0, 0, 1.677216, 2587.15332, -12.653835)">
          <path d="M256.001,344.258c55.33,0,104.669-25.49,137.041-65.324c-10.504-7.251-19.357-12.064-22.243-13.583&#10;&#9;&#9;c-0.155-0.183-0.335-0.341-0.491-0.524H141.694c-0.156,0.183-0.337,0.341-0.491,0.524c-2.888,1.518-11.74,6.333-22.243,13.583&#10;&#9;&#9;C151.332,318.77,200.67,344.258,256.001,344.258z" style="fill: rgb(183, 142, 124);"/>
          <path d="M141.208,265.347L141.208,265.347l-0.004,0.004c-9.244,4.862-79.622,43.491-69.61,87.752&#10;&#9;&#9;c4.831,21.356,24.061,25.837,35.482,26.571c8.8,74.494,72.065,132.308,148.925,132.308c8.914,0,17.618-0.855,26.102-2.346&#10;&#9;&#9;c0.122-0.031,0.262-0.107,0.381-0.128c-70.228-12.526-123.586-73.766-123.586-147.594c0-37.062,13.459-70.94,35.735-97.086h-52.938&#10;&#9;&#9;C141.541,265.009,141.445,265.347,141.208,265.347z" style="fill: rgb(183, 142, 124);"/>
        </g>
        <circle cx="236.893" cy="103.64" r="103.64" transform="matrix(1.000001, 0, 0, 1, 2587.15293, -12.653835)" style="fill: rgb(200, 167, 146);"/>
        <circle cx="236.893" cy="103.64" r="74.029" transform="matrix(1.000001, 0, 0, 1, 2587.153, -12.653834)" style="fill: rgb(183, 142, 124);"/>
        <circle cx="621.843" cy="103.64" r="103.64" transform="matrix(0.999999, 0, 0, 1, 2587.154053, -12.653835)" style="fill: rgb(200, 167, 146);"/>
        <circle cx="621.843" cy="103.64" r="74.029" transform="matrix(1.000001, 0, 0, 1, 2587.152808, -12.653834)" style="fill: rgb(183, 142, 124);"/>
        <g transform="matrix(1.677216, 0, 0, 1.677216, 2587.15332, -12.653835)">
          <path d="M396.909,424.068c-7.957-7.957-19.676-10.879-32.995-8.205&#10;&#9;&#9;c-12.146,2.432-24.408,9.341-34.526,19.457c-10.118,10.116-17.026,22.379-19.458,34.525c-2.666,13.326,0.248,25.037,8.206,32.994&#10;&#9;&#9;c6.03,6.03,14.221,9.162,23.639,9.162c2.999,0,6.131-0.319,9.348-0.963c12.153-2.432,24.416-9.341,34.526-19.457&#10;&#9;&#9;c10.118-10.11,17.026-22.371,19.458-34.525C407.772,443.735,404.858,432.018,396.909,424.068z" style="fill: rgb(200, 167, 146);"/>
          <circle cx="256.001" cy="167.702" r="158.897" style="fill: rgb(200, 167, 146);"/>
        </g>
        <path d="M 2844.079 268.625 C 2844.079 137.514 2938.837 28.76 3063.553 6.517 C 3048.26 3.79 3032.598 2.121 3016.522 2.121 C 2869.337 2.121 2750.018 121.438 2750.018 268.625 C 2750.018 415.813 2869.335 535.13 3016.522 535.13 C 3032.598 535.13 3048.26 533.463 3063.553 530.734 C 2938.835 508.491 2844.079 399.737 2844.079 268.625 Z" style="fill: rgb(183, 142, 124);"/>
        <g transform="matrix(1.677216, 0, 0, 1.677216, 2587.15332, -12.653835)">
          <path d="M189.794,194.207L189.794,194.207c-7.313,0-13.241-5.929-13.241-13.241v-8.845&#10;&#9;&#9;c0-7.313,5.929-13.241,13.241-13.241l0,0c7.313,0,13.241,5.929,13.241,13.241v8.845&#10;&#9;&#9;C203.035,188.278,197.106,194.207,189.794,194.207z" style="fill:#6E4141;"/>
          <path d="M322.207,194.207L322.207,194.207c-7.313,0-13.241-5.929-13.241-13.241v-8.845&#10;&#9;&#9;c0-7.313,5.929-13.241,13.241-13.241l0,0c7.313,0,13.241,5.929,13.241,13.241v8.845&#10;&#9;&#9;C335.449,188.278,329.52,194.207,322.207,194.207z" style="fill:#6E4141;"/>
        </g>
        <path d="M 2893.438 717.469 C 2876.468 700.499 2855.902 688.912 2835.531 684.833 C 2813.217 680.364 2793.536 685.238 2780.191 698.597 C 2766.859 711.929 2761.971 731.584 2766.439 753.923 C 2770.518 774.306 2782.106 794.874 2799.075 811.831 C 2816.031 828.801 2836.597 840.387 2856.982 844.466 C 2862.391 845.549 2867.631 846.081 2872.661 846.081 C 2888.457 846.081 2902.195 840.828 2912.309 830.714 C 2925.654 817.369 2930.542 797.727 2926.072 775.376 C 2921.994 755.005 2910.406 734.439 2893.438 717.469 Z" style="fill: rgb(200, 167, 146);"/>
        <path d="M 2839.09 811.829 C 2822.12 794.872 2810.533 774.306 2806.454 753.921 C 2801.983 731.582 2806.87 711.929 2820.206 698.595 C 2825.908 692.887 2832.819 688.83 2840.542 686.287 C 2838.868 685.853 2837.203 685.165 2835.532 684.832 C 2813.219 680.362 2793.538 685.236 2780.193 698.595 C 2766.86 711.927 2761.973 731.582 2766.441 753.921 C 2770.52 774.304 2782.108 794.872 2799.076 811.829 C 2816.033 828.799 2836.599 840.385 2856.984 844.464 C 2862.393 845.548 2867.633 846.079 2872.663 846.079 C 2879.514 846.079 2885.879 844.904 2891.826 842.961 C 2873.164 838.079 2854.609 827.363 2839.09 811.829 Z" style="fill: rgb(183, 142, 124);"/>
        <g transform="matrix(1.677216, 0, 0, 1.677216, 2587.15332, -12.653835)">
          <path d="M341.992,502.816c-7.957-7.957-10.871-19.668-8.206-32.994c2.432-12.146,9.341-24.407,19.458-34.525&#10;&#9;&#9;c9.288-9.287,20.387-15.691,31.54-18.59c-6.172-2.034-13.244-2.399-20.872-0.868c-12.146,2.432-24.408,9.341-34.526,19.457&#10;&#9;&#9;c-10.118,10.116-17.026,22.379-19.458,34.525c-2.666,13.326,0.248,25.037,8.206,32.994c6.03,6.03,14.221,9.162,23.639,9.162&#10;&#9;&#9;c2.999,0,6.131-0.319,9.348-0.963c1.03-0.206,2.053-0.626,3.083-0.896C349.573,508.605,345.407,506.23,341.992,502.816z" style="fill: rgb(183, 142, 124);"/>
          <path d="M 284.192 234.912 C 281.888 232.608 278.155 232.608 275.851 234.912 C 270.365 240.398 265.198 238.668 262.326 236.853 L 262.326 216.146 C 262.326 212.888 259.685 210.247 256.427 210.247 C 253.17 210.247 250.529 212.888 250.529 216.146 L 250.529 236.848 C 247.799 238.535 242.527 240.43 237.004 234.912 C 234.7 232.608 230.967 232.608 228.663 234.912 C 226.359 237.216 226.359 240.949 228.663 243.253 C 233.847 248.436 239.455 250.358 244.648 250.358 C 249.068 250.358 253.127 248.918 256.427 246.961 C 259.727 248.918 263.787 250.358 268.207 250.358 C 273.4 250.358 279.01 248.438 284.192 243.253 C 286.496 240.949 286.496 237.216 284.192 234.912 Z" style="fill: rgb(146, 95, 74);"/>
        </g>
        <ellipse cx="429.369" cy="347.935" rx="59.223" ry="37.014" transform="matrix(0.999998, 0, 0, 1.000001, 2587.154297, -12.654095)" style="fill:#784B46;"/>
        <path d="M 2986.909 335.281 C 2986.909 318.053 3005.827 303.703 3031.327 299.575 C 3026.569 298.805 3021.665 298.267 3016.521 298.267 C 2983.813 298.267 2957.298 314.838 2957.298 335.281 C 2957.298 355.723 2983.813 372.296 3016.521 372.296 C 3021.663 372.296 3026.569 371.757 3031.327 370.988 C 3005.828 366.86 2986.909 352.508 2986.909 335.281 Z" style="fill:#6E4141;"/>
        <circle cx="458.98" cy="340.532" r="14.806" transform="matrix(1.000012, 0, 0, 1, 2587.147553, -12.653839)" style="fill:#A0786E;"/>
        <g transform="matrix(1.677216, 0, 0, 1.677216, 2587.15332, -12.653835)"/>
        <g transform="matrix(1.677216, 0, 0, 1.677216, 2587.15332, -12.653835)"/>
        <g transform="matrix(1.677216, 0, 0, 1.677216, 2587.15332, -12.653835)"/>
        <g transform="matrix(1.677216, 0, 0, 1.677216, 2587.15332, -12.653835)"/>
        <g transform="matrix(1.677216, 0, 0, 1.677216, 2587.15332, -12.653835)"/>
        <g transform="matrix(1.677216, 0, 0, 1.677216, 2587.15332, -12.653835)"/>
        <g transform="matrix(1.677216, 0, 0, 1.677216, 2587.15332, -12.653835)"/>
        <g transform="matrix(1.677216, 0, 0, 1.677216, 2587.15332, -12.653835)"/>
        <g transform="matrix(1.677216, 0, 0, 1.677216, 2587.15332, -12.653835)"/>
        <g transform="matrix(1.677216, 0, 0, 1.677216, 2587.15332, -12.653835)"/>
        <g transform="matrix(1.677216, 0, 0, 1.677216, 2587.15332, -12.653835)"/>
        <g transform="matrix(1.677216, 0, 0, 1.677216, 2587.15332, -12.653835)"/>
        <g transform="matrix(1.677216, 0, 0, 1.677216, 2587.15332, -12.653835)"/>
        <g transform="matrix(1.677216, 0, 0, 1.677216, 2587.15332, -12.653835)"/>
        <g transform="matrix(1.677216, 0, 0, 1.677216, 2587.15332, -12.653835)"/>
      </g>
      <polygon style="stroke: rgb(0, 0, 0); fill: rgb(60, 60, 60);" points="1399.158 457.464 1406.197 457.464 1405.127 451.582 1400.243 451.657"/>
      <polygon style="stroke: rgb(0, 0, 0); fill: rgb(60, 60, 60);" points="1429.884 457.723 1436.924 457.723 1435.854 452.24 1430.964 452.31"/>
      <ellipse transform="matrix(0.617807, -0.786312, 0.786332, 0.617835, 1281.634304, 451.796925)" cx="113.186" cy="117.43" rx="2.799" ry="2.799"/>
      <ellipse transform="matrix(0.617807, -0.786323, 0.786302, 0.617801, 1231.327906, 450.618845)" cx="113.185" cy="117.436" rx="2.799" ry="2.799"/>
      <line style="stroke: rgb(0, 0, 0);" x1="1378.902" y1="407.683" x2="1383.287" y2="405.735"/>
      <line style="stroke: rgb(0, 0, 0);" x1="1452.077" y1="407.196" x2="1455.877" y2="408.853"/>
    </g>
    <g transform="matrix(1.902201, 0.612463, -0.612463, 1.902201, -1165.06958, -1302.374878)">
      <line x1="1452.575" y1="446.758" x2="1452.575" y2="427.743" style="stroke: rgb(8, 181, 255);"/>
      <line x1="1457.103" y1="444.344" x2="1457.103" y2="435.591" style="stroke: rgb(8, 181, 255);"/>
      <line x1="1461.328" y1="446.155" x2="1461.328" y2="430.158" style="stroke: rgb(8, 181, 255);"/>
      <line x1="1465.554" y1="445.551" x2="1465.554" y2="437.999" style="stroke: rgb(8, 181, 255);"/>
      <line x1="1470.987" y1="444.646" x2="1470.987" y2="435.892" style="stroke: rgb(8, 181, 255);"/>
      <line x1="1479.136" y1="438.609" x2="1479.136" y2="433.176" style="stroke: rgb(8, 181, 255);"/>
      <line x1="1444.728" y1="440.118" x2="1444.728" y2="431.365" style="stroke: rgb(8, 181, 255);"/>
      <line x1="1449.557" y1="439.213" x2="1449.557" y2="433.478" style="stroke: rgb(8, 181, 255);"/>
      <line x1="1466.761" y1="433.176" x2="1466.761" y2="429.856" style="stroke: rgb(8, 181, 255);"/>
      <line x1="1456.801" y1="427.139" x2="1456.801" y2="425.328" style="stroke: rgb(8, 181, 255);"/>
    </g>
  </g>
  <g transform="matrix(1.296339, 0, 0, 1.297827, -992.145142, 235.369949)">
    <rect class="cls-1" x="53.97" y="175.63" width="10.22" height="31.8" transform="matrix(0.999997, 0, 0, 1, 1742.528939, 349.585595)" style="fill: rgb(141, 94, 59);"/>
    <rect class="cls-2" x="64.19" y="175.63" width="10.22" height="31.8" transform="matrix(1.000009, 0, 0, 1, 1742.528173, 349.585595)" style="fill: rgb(125, 86, 53);"/>
    <polygon class="cls-3" points="1806.719 349.586 1837.819 412.656 1827.449 409.376 1848.189 441.355 1836.619 441.355 1856.959 471.896 1847.789 471.896 1864.139 502.445 1856.159 502.445 1870.909 535.206 1806.719 535.206 1806.719 349.586" style="fill: rgb(65, 150, 92);"/>
    <polygon class="cls-4" points="1806.719 349.586 1775.619 412.656 1785.989 409.376 1765.259 441.355 1776.819 441.355 1756.489 471.896 1765.659 471.896 1749.309 502.445 1757.279 502.445 1742.529 535.206 1806.719 535.206 1806.719 349.586" style="fill: rgb(92, 175, 99);"/>
  </g>
  <rect x="362.053" y="716.868" width="110.19" height="81.825" transform="matrix(0.999999, 0, 0, 1, 874.326006, -647.64917)" style="fill: rgb(255, 68, 68);"/>
  <rect x="354.964" y="687.955" width="13.092" height="238.928" transform="matrix(1.000002, 0, 0, 1, 874.322903, -647.648376)" style="fill: rgb(255, 68, 68);"/>
  <rect x="135.184" y="388.897" width="12.001" height="238.928" transform="matrix(1.000003, 0, 0, 1, 1209.201667, -348.590179)" style="fill: rgb(255, 68, 68);"/>
  <rect x="840.098" y="655.801" width="110.19" height="81.825" transform="matrix(1, 0, 0, 1.000001, 63.145752, -34.002564)" style="fill: rgb(0, 110, 255);"/>
  <rect x="354.968" y="687.955" width="13.092" height="238.928" transform="matrix(1.000002, 0, 0, 1, 541.185116, -95.068481)" style="fill: rgb(0, 110, 255);"/>
  <rect x="1011.252" y="592.887" width="12.001" height="238.928" style="fill: rgb(0, 110, 255);"/>
  <path d="M 166.049 328.738 L 209.088 403.283 L 123.01 403.283 L 166.049 328.738 Z" transform="matrix(0, 1, -1, 0, 498.342499, 284.005612)" bx:shape="triangle 123.01 328.738 86.078 74.545 0.5 0 1@c23e8571"/>
  <path d="M 166.049 328.738 L 209.088 403.283 L 123.01 403.283 L 166.049 328.738 Z" transform="matrix(0, 1, -1, 0, 498.987579, 467.230893)" bx:shape="triangle 123.01 328.738 86.078 74.545 0.5 0 1@c23e8571"/>
  <path d="M 166.049 328.738 L 209.088 403.283 L 123.01 403.283 L 166.049 328.738 Z" transform="matrix(0, 1, -1, 0, 498.342499, 650.456235)" bx:shape="triangle 123.01 328.738 86.078 74.545 0.5 0 1@c23e8571"/>
</svg>