<?xml version="1.0" encoding="utf-8"?>
<svg viewBox="-35.86800003051758 -0.3720000088214874 936 363.9750061035156" xmlns="http://www.w3.org/2000/svg">
  <g transform="matrix(0.723858, 0, 0, 0.634885, -914.709595, -108.646561)">
    <rect class="cls-1" x="53.97" y="175.63" width="10.22" height="31.8" transform="matrix(0.999997, 0, 0, 1, 1742.528939, 349.585595)" style="fill: rgb(141, 94, 59);"/>
    <rect class="cls-2" x="64.19" y="175.63" width="10.22" height="31.8" transform="matrix(1.000009, 0, 0, 1, 1742.528173, 349.585595)" style="fill: rgb(125, 86, 53);"/>
    <polygon class="cls-3" points="1806.719 349.586 1837.819 412.656 1827.449 409.376 1848.189 441.355 1836.619 441.355 1856.959 471.896 1847.789 471.896 1864.139 502.445 1856.159 502.445 1870.909 535.206 1806.719 535.206 1806.719 349.586" style="fill: rgb(65, 150, 92);"/>
    <polygon class="cls-4" points="1806.719 349.586 1775.619 412.656 1785.989 409.376 1765.259 441.355 1776.819 441.355 1756.489 471.896 1765.659 471.896 1749.309 502.445 1757.279 502.445 1742.529 535.206 1806.719 535.206 1806.719 349.586" style="fill: rgb(92, 175, 99);"/>
  </g>
  <g transform="matrix(0.584067, 0, 0, 0.584739, -608.452759, -74.078384)">
    <rect class="cls-1" x="53.97" y="175.63" width="10.22" height="31.8" transform="matrix(0.999997, 0, 0, 1, 1742.528939, 349.585595)" style="fill: rgb(141, 94, 59);"/>
    <rect class="cls-2" x="64.19" y="175.63" width="10.22" height="31.8" transform="matrix(1.000009, 0, 0, 1, 1742.528173, 349.585595)" style="fill: rgb(125, 86, 53);"/>
    <polygon class="cls-3" points="1806.719 349.586 1837.819 412.656 1827.449 409.376 1848.189 441.355 1836.619 441.355 1856.959 471.896 1847.789 471.896 1864.139 502.445 1856.159 502.445 1870.909 535.206 1806.719 535.206 1806.719 349.586" style="fill: rgb(65, 150, 92);"/>
    <polygon class="cls-4" points="1806.719 349.586 1775.619 412.656 1785.989 409.376 1765.259 441.355 1776.819 441.355 1756.489 471.896 1765.659 471.896 1749.309 502.445 1757.279 502.445 1742.529 535.206 1806.719 535.206 1806.719 349.586" style="fill: rgb(92, 175, 99);"/>
  </g>
  <g transform="matrix(0.515765, 0, 0, 0.516357, -929.496704, -54.878201)">
    <rect class="cls-1" x="53.97" y="175.63" width="10.22" height="31.8" transform="matrix(0.999997, 0, 0, 1, 1742.528939, 349.585595)" style="fill: rgb(141, 94, 59);"/>
    <rect class="cls-2" x="64.19" y="175.63" width="10.22" height="31.8" transform="matrix(1.000009, 0, 0, 1, 1742.528173, 349.585595)" style="fill: rgb(125, 86, 53);"/>
    <polygon class="cls-3" points="1806.719 349.586 1837.819 412.656 1827.449 409.376 1848.189 441.355 1836.619 441.355 1856.959 471.896 1847.789 471.896 1864.139 502.445 1856.159 502.445 1870.909 535.206 1806.719 535.206 1806.719 349.586" style="fill: rgb(65, 150, 92);"/>
    <polygon class="cls-4" points="1806.719 349.586 1775.619 412.656 1785.989 409.376 1765.259 441.355 1776.819 441.355 1756.489 471.896 1765.659 471.896 1749.309 502.445 1757.279 502.445 1742.529 535.206 1806.719 535.206 1806.719 349.586" style="fill: rgb(92, 175, 99);"/>
  </g>
  <g transform="matrix(0.502104, 0, 0, 0.502681, -873.30835, -34.967316)">
    <rect class="cls-1" x="53.97" y="175.63" width="10.22" height="31.8" transform="matrix(0.999997, 0, 0, 1, 1742.528939, 349.585595)" style="fill: rgb(141, 94, 59);"/>
    <rect class="cls-2" x="64.19" y="175.63" width="10.22" height="31.8" transform="matrix(1.000009, 0, 0, 1, 1742.528173, 349.585595)" style="fill: rgb(125, 86, 53);"/>
    <polygon class="cls-3" points="1806.719 349.586 1837.819 412.656 1827.449 409.376 1848.189 441.355 1836.619 441.355 1856.959 471.896 1847.789 471.896 1864.139 502.445 1856.159 502.445 1870.909 535.206 1806.719 535.206 1806.719 349.586" style="fill: rgb(65, 150, 92);"/>
    <polygon class="cls-4" points="1806.719 349.586 1775.619 412.656 1785.989 409.376 1765.259 441.355 1776.819 441.355 1756.489 471.896 1765.659 471.896 1749.309 502.445 1757.279 502.445 1742.529 535.206 1806.719 535.206 1806.719 349.586" style="fill: rgb(92, 175, 99);"/>
  </g>
  <g transform="matrix(0.515765, 0, 0, 0.516357, -789.366882, -49.677349)">
    <rect class="cls-1" x="53.97" y="175.63" width="10.22" height="31.8" transform="matrix(0.999997, 0, 0, 1, 1742.528939, 349.585595)" style="fill: rgb(141, 94, 59);"/>
    <rect class="cls-2" x="64.19" y="175.63" width="10.22" height="31.8" transform="matrix(1.000009, 0, 0, 1, 1742.528173, 349.585595)" style="fill: rgb(125, 86, 53);"/>
    <polygon class="cls-3" points="1806.719 349.586 1837.819 412.656 1827.449 409.376 1848.189 441.355 1836.619 441.355 1856.959 471.896 1847.789 471.896 1864.139 502.445 1856.159 502.445 1870.909 535.206 1806.719 535.206 1806.719 349.586" style="fill: rgb(65, 150, 92);"/>
    <polygon class="cls-4" points="1806.719 349.586 1775.619 412.656 1785.989 409.376 1765.259 441.355 1776.819 441.355 1756.489 471.896 1765.659 471.896 1749.309 502.445 1757.279 502.445 1742.529 535.206 1806.719 535.206 1806.719 349.586" style="fill: rgb(92, 175, 99);"/>
  </g>
  <g transform="matrix(0.515765, 0, 0, 0.516357, -746.862549, -47.786098)">
    <rect class="cls-1" x="53.97" y="175.63" width="10.22" height="31.8" transform="matrix(0.999997, 0, 0, 1, 1742.528939, 349.585595)" style="fill: rgb(141, 94, 59);"/>
    <rect class="cls-2" x="64.19" y="175.63" width="10.22" height="31.8" transform="matrix(1.000009, 0, 0, 1, 1742.528173, 349.585595)" style="fill: rgb(125, 86, 53);"/>
    <polygon class="cls-3" points="1806.719 349.586 1837.819 412.656 1827.449 409.376 1848.189 441.355 1836.619 441.355 1856.959 471.896 1847.789 471.896 1864.139 502.445 1856.159 502.445 1870.909 535.206 1806.719 535.206 1806.719 349.586" style="fill: rgb(65, 150, 92);"/>
    <polygon class="cls-4" points="1806.719 349.586 1775.619 412.656 1785.989 409.376 1765.259 441.355 1776.819 441.355 1756.489 471.896 1765.659 471.896 1749.309 502.445 1757.279 502.445 1742.529 535.206 1806.719 535.206 1806.719 349.586" style="fill: rgb(92, 175, 99);"/>
  </g>
  <g transform="matrix(0.515765, 0, 0, 0.516357, -600.61145, -42.151794)">
    <rect class="cls-1" x="53.97" y="175.63" width="10.22" height="31.8" transform="matrix(0.999997, 0, 0, 1, 1742.528939, 349.585595)" style="fill: rgb(141, 94, 59);"/>
    <rect class="cls-2" x="64.19" y="175.63" width="10.22" height="31.8" transform="matrix(1.000009, 0, 0, 1, 1742.528173, 349.585595)" style="fill: rgb(125, 86, 53);"/>
    <polygon class="cls-3" points="1806.719 349.586 1837.819 412.656 1827.449 409.376 1848.189 441.355 1836.619 441.355 1856.959 471.896 1847.789 471.896 1864.139 502.445 1856.159 502.445 1870.909 535.206 1806.719 535.206 1806.719 349.586" style="fill: rgb(65, 150, 92);"/>
    <polygon class="cls-4" points="1806.719 349.586 1775.619 412.656 1785.989 409.376 1765.259 441.355 1776.819 441.355 1756.489 471.896 1765.659 471.896 1749.309 502.445 1757.279 502.445 1742.529 535.206 1806.719 535.206 1806.719 349.586" style="fill: rgb(92, 175, 99);"/>
  </g>
</svg>