<?xml version="1.0" encoding="utf-8"?>
<svg viewBox="0 0 225 225" xmlns="http://www.w3.org/2000/svg">
  <g transform="matrix(1.052439, 0, 0, 1.05365, -1788.961548, -361.899506)">
    <rect class="cls-1" x="53.97" y="175.63" width="10.22" height="31.8" transform="matrix(0.999997, 0, 0, 1, 1742.528939, 349.585595)" style="fill: rgb(141, 94, 59);"/>
    <rect class="cls-2" x="64.19" y="175.63" width="10.22" height="31.8" transform="matrix(1.000009, 0, 0, 1, 1742.528173, 349.585595)" style="fill: rgb(125, 86, 53);"/>
    <polygon class="cls-3" points="1806.719 349.586 1837.819 412.656 1827.449 409.376 1848.189 441.355 1836.619 441.355 1856.959 471.896 1847.789 471.896 1864.139 502.445 1856.159 502.445 1870.909 535.206 1806.719 535.206 1806.719 349.586" style="fill: rgb(65, 150, 92);"/>
    <polygon class="cls-4" points="1806.719 349.586 1775.619 412.656 1785.989 409.376 1765.259 441.355 1776.819 441.355 1756.489 471.896 1765.659 471.896 1749.309 502.445 1757.279 502.445 1742.529 535.206 1806.719 535.206 1806.719 349.586" style="fill: rgb(92, 175, 99);"/>
  </g>
</svg>